<svg width="225" height="197" viewBox="0 0 225 197" fill="none" xmlns="http://www.w3.org/2000/svg">
<path fill-rule="evenodd" clip-rule="evenodd" d="M0 0H225V197H0V0ZM0.351562 0.351786H27.7734V27.7911H0.351562V0.351786ZM28.4766 0.351786H55.8984V27.7911H28.4766V0.351786ZM84.0234 0.351786H56.6016V27.7911H84.0234V0.351786ZM84.7266 0.351786H112.148V27.7911H84.7266V0.351786ZM140.273 0.351786H112.852V27.7911H140.273V0.351786ZM140.977 0.351786H168.398V27.7911H140.977V0.351786ZM196.523 0.351786H169.102V27.7911H196.523V0.351786ZM197.227 0.351786H224.648V27.7911H197.227V0.351786ZM27.7734 28.4946H0.351562V55.9339H27.7734V28.4946ZM28.4766 28.4946H55.8984V55.9339H28.4766V28.4946ZM84.0234 28.4946H56.6016V55.9339H84.0234V28.4946ZM84.7266 28.4946H112.148V55.9339H84.7266V28.4946ZM140.273 28.4946H112.852V55.9339H140.273V28.4946ZM140.977 28.4946H168.398V55.9339H140.977V28.4946ZM196.523 28.4946H169.102V55.9339H196.523V28.4946ZM197.227 28.4946H224.648V55.9339H197.227V28.4946ZM27.7734 56.6375H0.351562V84.0768H27.7734V56.6375ZM28.4766 56.6375H55.8984V84.0768H28.4766V56.6375ZM84.0234 56.6375H56.6016V84.0768H84.0234V56.6375ZM84.7266 56.6375H112.148V84.0768H84.7266V56.6375ZM140.273 56.6375H112.852V84.0768H140.273V56.6375ZM140.977 56.6375H168.398V84.0768H140.977V56.6375ZM196.523 56.6375H169.102V84.0768H196.523V56.6375ZM197.227 56.6375H224.648V84.0768H197.227V56.6375ZM27.7734 84.7804H0.351562V112.22H27.7734V84.7804ZM28.4766 84.7804H55.8984V112.22H28.4766V84.7804ZM84.0234 84.7804H56.6016V112.22H84.0234V84.7804ZM84.7266 84.7804H112.148V112.22H84.7266V84.7804ZM140.273 84.7804H112.852V112.22H140.273V84.7804ZM140.977 84.7804H168.398V112.22H140.977V84.7804ZM196.523 84.7804H169.102V112.22H196.523V84.7804ZM197.227 84.7804H224.648V112.22H197.227V84.7804ZM27.7734 112.923H0.351562V140.363H27.7734V112.923ZM28.4766 112.923H55.8984V140.363H28.4766V112.923ZM84.0234 112.923H56.6016V140.363H84.0234V112.923ZM84.7266 112.923H112.148V140.363H84.7266V112.923ZM140.273 112.923H112.852V140.363H140.273V112.923ZM140.977 112.923H168.398V140.363H140.977V112.923ZM196.523 112.923H169.102V140.363H196.523V112.923ZM197.227 112.923H224.648V140.363H197.227V112.923ZM27.7734 141.066H0.351562V168.505H27.7734V141.066ZM28.4766 141.066H55.8984V168.505H28.4766V141.066ZM84.0234 141.066H56.6016V168.505H84.0234V141.066ZM84.7266 141.066H112.148V168.505H84.7266V141.066ZM140.273 141.066H112.852V168.505H140.273V141.066ZM140.977 141.066H168.398V168.505H140.977V141.066ZM196.523 141.066H169.102V168.505H196.523V141.066ZM197.227 141.066H224.648V168.505H197.227V141.066ZM27.7734 169.209H0.351562V196.648H27.7734V169.209ZM28.4766 169.209H55.8984V196.648H28.4766V169.209ZM84.0234 169.209H56.6016V196.648H84.0234V169.209ZM84.7266 169.209H112.148V196.648H84.7266V169.209ZM140.273 169.209H112.852V196.648H140.273V169.209ZM140.977 169.209H168.398V196.648H140.977V169.209ZM196.523 169.209H169.102V196.648H196.523V169.209ZM197.227 169.209H224.648V196.648H197.227V169.209Z" fill="#E0C698"/>
<path d="M131.474 120.698C131.511 120.73 131.526 120.767 131.546 120.808C131.551 120.817 131.555 120.826 131.56 120.835C131.57 120.855 131.58 120.875 131.59 120.895C131.606 120.927 131.622 120.96 131.638 120.992C131.662 121.039 131.685 121.087 131.709 121.134C131.775 121.266 131.84 121.397 131.906 121.528C131.913 121.541 131.92 121.555 131.927 121.569C132.028 121.77 132.13 121.971 132.232 122.171C132.351 122.404 132.468 122.638 132.584 122.872C132.649 123.002 132.714 123.132 132.78 123.261C133.152 123.991 133.152 123.991 133.233 124.199C133.276 124.113 133.317 124.025 133.357 123.938C133.472 123.685 133.596 123.436 133.72 123.187C133.743 123.141 133.766 123.096 133.788 123.05C133.828 122.97 133.868 122.89 133.908 122.81C133.986 122.655 134.063 122.5 134.139 122.344C134.228 122.166 134.316 121.987 134.405 121.809C134.491 121.637 134.577 121.465 134.662 121.292C134.679 121.259 134.695 121.226 134.711 121.193C134.754 121.107 134.796 121.022 134.838 120.936C134.849 120.914 134.86 120.891 134.871 120.869C134.883 120.843 134.896 120.818 134.908 120.792C134.913 120.781 134.919 120.77 134.924 120.759C134.929 120.749 134.933 120.74 134.938 120.731C134.951 120.71 134.951 120.71 134.978 120.698C135.043 121.017 135.104 121.336 135.165 121.656C135.179 121.727 135.193 121.798 135.206 121.87C135.229 121.99 135.252 122.11 135.275 122.231C135.298 122.351 135.321 122.472 135.345 122.593C135.42 122.986 135.495 123.379 135.57 123.773C135.578 123.816 135.586 123.859 135.594 123.902C135.626 124.068 135.657 124.234 135.689 124.4C135.699 124.451 135.708 124.502 135.718 124.552C135.729 124.611 135.74 124.67 135.751 124.729C135.756 124.75 135.76 124.771 135.764 124.793C135.769 124.822 135.775 124.851 135.78 124.88C135.782 124.888 135.783 124.896 135.785 124.905C135.791 124.938 135.796 124.969 135.796 125.002C135.643 125.002 135.49 125.002 135.332 125.002C135.212 124.372 135.092 123.742 134.974 123.112C134.964 123.059 134.954 123.006 134.944 122.953C134.855 122.48 134.855 122.48 134.821 122.245C134.82 122.238 134.819 122.23 134.818 122.222C134.806 122.14 134.798 122.06 134.801 121.978C134.792 121.978 134.783 121.978 134.773 121.978C134.769 121.999 134.769 121.999 134.764 122.021C134.745 122.094 134.712 122.161 134.679 122.231C134.672 122.246 134.665 122.261 134.657 122.276C134.56 122.48 134.459 122.683 134.358 122.886C134.303 122.997 134.248 123.107 134.193 123.218C134.188 123.229 134.182 123.24 134.177 123.251C134.093 123.42 134.01 123.59 133.927 123.759C133.843 123.931 133.758 124.102 133.673 124.273C133.613 124.395 133.552 124.518 133.492 124.641C133.483 124.658 133.483 124.658 133.475 124.676C133.448 124.73 133.421 124.785 133.395 124.839C133.347 124.937 133.299 125.034 133.247 125.13C133.207 125.113 133.203 125.091 133.186 125.057C133.18 125.043 133.173 125.03 133.166 125.017C133.159 125.002 133.152 124.988 133.145 124.974C133.138 124.959 133.131 124.944 133.123 124.929C133.108 124.898 133.093 124.868 133.078 124.837C133.045 124.772 133.012 124.706 132.98 124.641C132.967 124.616 132.954 124.591 132.942 124.565C132.914 124.511 132.887 124.457 132.86 124.403C132.846 124.374 132.831 124.345 132.817 124.317C132.813 124.309 132.809 124.302 132.806 124.295C132.754 124.193 132.703 124.09 132.652 123.988C132.483 123.651 132.483 123.651 132.313 123.315C132.231 123.155 132.15 122.994 132.069 122.832C132.058 122.811 132.047 122.79 132.037 122.769C131.965 122.625 131.893 122.482 131.822 122.338C131.817 122.327 131.811 122.316 131.806 122.304C131.755 122.201 131.71 122.095 131.665 121.989C131.664 121.998 131.663 122.007 131.662 122.016C131.623 122.329 131.565 122.64 131.506 122.951C131.493 123.023 131.479 123.094 131.466 123.166C131.443 123.287 131.42 123.407 131.397 123.527C131.374 123.651 131.351 123.774 131.327 123.898C131.299 124.048 131.271 124.198 131.243 124.347C131.232 124.404 131.221 124.462 131.21 124.519C131.198 124.585 131.185 124.652 131.173 124.719C131.168 124.743 131.163 124.768 131.159 124.793C131.152 124.826 131.146 124.859 131.14 124.893C131.138 124.902 131.136 124.912 131.134 124.922C131.121 124.989 131.121 124.989 131.106 125.002C131.072 125.003 131.038 125.003 131.003 125.003C130.988 125.003 130.988 125.003 130.972 125.003C130.939 125.003 130.906 125.003 130.873 125.003C130.851 125.003 130.829 125.002 130.807 125.002C130.752 125.002 130.697 125.002 130.643 125.002C130.675 124.78 130.718 124.56 130.761 124.339C130.772 124.285 130.782 124.231 130.793 124.177C130.811 124.084 130.829 123.991 130.847 123.897C130.892 123.664 130.937 123.431 130.983 123.198C130.99 123.16 130.997 123.122 131.005 123.084C131.072 122.735 131.139 122.386 131.206 122.037C131.212 122.004 131.219 121.971 131.225 121.938C131.263 121.741 131.3 121.543 131.338 121.346C131.352 121.27 131.367 121.194 131.381 121.118C131.391 121.066 131.401 121.014 131.411 120.962C131.418 120.923 131.426 120.885 131.433 120.846C131.436 120.832 131.438 120.819 131.441 120.804C131.443 120.792 131.446 120.78 131.448 120.767C131.45 120.756 131.452 120.745 131.455 120.734C131.461 120.71 131.461 120.71 131.474 120.698Z" fill="#450000"/>
<path d="M148.024 120.675C148.061 120.706 148.076 120.744 148.096 120.784C148.101 120.793 148.105 120.802 148.11 120.812C148.12 120.832 148.13 120.851 148.139 120.871C148.156 120.904 148.172 120.936 148.188 120.969C148.212 121.016 148.235 121.063 148.259 121.111C148.324 121.242 148.39 121.373 148.456 121.504C148.463 121.518 148.47 121.532 148.477 121.546C148.578 121.747 148.679 121.947 148.782 122.148C148.9 122.381 149.018 122.614 149.134 122.848C149.199 122.978 149.264 123.108 149.33 123.238C149.701 123.968 149.701 123.968 149.783 124.176C149.826 124.089 149.867 124.002 149.907 123.914C150.022 123.662 150.146 123.413 150.27 123.163C150.293 123.118 150.315 123.072 150.338 123.027C150.378 122.947 150.418 122.867 150.458 122.787C150.535 122.632 150.612 122.476 150.689 122.321C150.778 122.142 150.866 121.964 150.955 121.786C151.041 121.613 151.127 121.441 151.212 121.269C151.228 121.236 151.245 121.203 151.261 121.17C151.304 121.084 151.346 120.998 151.388 120.913C151.399 120.89 151.41 120.868 151.42 120.846C151.433 120.82 151.446 120.794 151.458 120.768C151.463 120.757 151.469 120.747 151.474 120.735C151.479 120.726 151.483 120.717 151.488 120.707C151.5 120.686 151.5 120.686 151.528 120.675C151.593 120.994 151.654 121.313 151.715 121.633C151.729 121.704 151.742 121.775 151.756 121.846C151.779 121.967 151.802 122.087 151.825 122.207C151.848 122.328 151.871 122.449 151.894 122.57C151.969 122.963 152.045 123.356 152.119 123.749C152.128 123.792 152.136 123.835 152.144 123.879C152.176 124.045 152.207 124.21 152.239 124.376C152.248 124.427 152.258 124.478 152.268 124.529C152.279 124.588 152.29 124.646 152.301 124.705C152.305 124.726 152.309 124.748 152.313 124.769C152.319 124.798 152.324 124.827 152.33 124.856C152.332 124.865 152.333 124.873 152.335 124.882C152.341 124.914 152.346 124.945 152.346 124.978C152.193 124.978 152.04 124.978 151.882 124.978C151.762 124.349 151.642 123.719 151.524 123.088C151.514 123.036 151.504 122.983 151.494 122.93C151.405 122.457 151.405 122.457 151.371 122.222C151.37 122.214 151.369 122.206 151.368 122.198C151.356 122.117 151.348 122.037 151.351 121.954C151.342 121.954 151.333 121.954 151.323 121.954C151.319 121.976 151.319 121.976 151.314 121.997C151.295 122.07 151.262 122.138 151.229 122.207C151.222 122.222 151.214 122.237 151.207 122.253C151.11 122.457 151.008 122.66 150.907 122.863C150.852 122.973 150.798 123.084 150.743 123.194C150.738 123.205 150.732 123.216 150.727 123.227C150.643 123.397 150.56 123.566 150.476 123.736C150.393 123.907 150.308 124.078 150.223 124.249C150.162 124.372 150.102 124.495 150.041 124.618C150.033 124.635 150.033 124.635 150.024 124.652C149.998 124.707 149.971 124.761 149.945 124.816C149.897 124.913 149.849 125.011 149.796 125.106C149.757 125.089 149.753 125.068 149.736 125.033C149.73 125.02 149.723 125.007 149.716 124.993C149.709 124.979 149.702 124.965 149.695 124.95C149.688 124.935 149.68 124.921 149.673 124.906C149.658 124.875 149.643 124.844 149.628 124.814C149.595 124.748 149.562 124.683 149.529 124.618C149.517 124.592 149.504 124.567 149.491 124.542C149.464 124.488 149.437 124.434 149.41 124.38C149.395 124.351 149.381 124.322 149.366 124.293C149.363 124.286 149.359 124.279 149.355 124.271C149.304 124.169 149.253 124.067 149.201 123.965C149.033 123.628 149.033 123.628 148.862 123.292C148.781 123.131 148.7 122.97 148.619 122.809C148.608 122.788 148.597 122.767 148.587 122.745C148.514 122.602 148.443 122.458 148.372 122.314C148.367 122.303 148.361 122.292 148.356 122.281C148.305 122.177 148.259 122.072 148.215 121.966C148.214 121.975 148.213 121.983 148.212 121.993C148.173 122.306 148.115 122.616 148.056 122.927C148.043 122.999 148.029 123.071 148.015 123.143C147.993 123.263 147.97 123.383 147.947 123.504C147.924 123.627 147.901 123.751 147.877 123.874C147.849 124.024 147.821 124.174 147.792 124.324C147.782 124.381 147.771 124.438 147.76 124.495C147.748 124.562 147.735 124.629 147.722 124.695C147.718 124.72 147.713 124.745 147.708 124.769C147.702 124.802 147.696 124.836 147.689 124.869C147.688 124.879 147.686 124.889 147.684 124.899C147.671 124.965 147.671 124.965 147.656 124.978C147.622 124.979 147.588 124.98 147.553 124.98C147.538 124.98 147.538 124.98 147.522 124.979C147.489 124.979 147.456 124.979 147.423 124.979C147.401 124.979 147.379 124.979 147.356 124.979C147.302 124.979 147.247 124.979 147.192 124.978C147.225 124.757 147.268 124.536 147.311 124.316C147.322 124.262 147.332 124.207 147.343 124.153C147.361 124.06 147.379 123.967 147.397 123.874C147.442 123.641 147.487 123.407 147.532 123.174C147.54 123.136 147.547 123.099 147.554 123.061C147.622 122.712 147.689 122.363 147.756 122.014C147.762 121.98 147.769 121.947 147.775 121.914C147.813 121.717 147.85 121.52 147.888 121.323C147.902 121.247 147.917 121.171 147.931 121.095C147.941 121.043 147.951 120.99 147.961 120.938C147.968 120.9 147.976 120.861 147.983 120.823C147.986 120.809 147.988 120.795 147.991 120.781C147.993 120.769 147.996 120.756 147.998 120.743C148 120.733 148.002 120.722 148.004 120.711C148.01 120.686 148.01 120.686 148.024 120.675Z" fill="#450000"/>
<path d="M45.5128 120.774C45.5259 120.775 45.5389 120.775 45.5524 120.775C45.7536 120.775 45.9466 120.783 46.1425 120.826C46.1543 120.829 46.166 120.831 46.1782 120.834C46.8082 120.971 47.375 121.34 47.7083 121.815C47.8568 122.032 47.9602 122.256 48.0239 122.501C48.0273 122.514 48.0273 122.514 48.0307 122.527C48.1619 123.042 48.0332 123.615 47.7069 124.06C47.6696 124.108 47.6295 124.154 47.5876 124.199C47.5793 124.208 47.5793 124.208 47.5708 124.218C47.1384 124.684 46.5339 124.982 45.8399 125.054C45.7743 125.06 45.7092 125.062 45.6432 125.063C45.631 125.063 45.6187 125.063 45.6061 125.063C45.0885 125.067 45.0885 125.067 44.8337 125.013C44.8158 125.01 44.8158 125.01 44.7976 125.006C44.3759 124.914 44.0139 124.736 43.7021 124.478C43.6953 124.473 43.6885 124.467 43.6815 124.462C43.217 124.085 42.941 123.534 42.9233 122.989C42.9113 122.426 43.1414 121.871 43.5925 121.457C43.6119 121.439 43.6305 121.42 43.6484 121.401C43.6883 121.359 43.7352 121.326 43.7839 121.291C43.7947 121.284 43.7947 121.284 43.8057 121.276C44.2902 120.929 44.8844 120.771 45.5128 120.774ZM44.9155 121.175C44.9051 121.177 44.8947 121.18 44.884 121.182C44.5584 121.257 44.2747 121.415 44.0346 121.613C44.0183 121.627 44.0018 121.64 43.9852 121.653C43.6343 121.938 43.4337 122.372 43.4141 122.781C43.4049 123.127 43.4549 123.444 43.634 123.757C43.6404 123.768 43.6468 123.78 43.6534 123.791C43.8991 124.198 44.3471 124.5 44.854 124.639C45.0546 124.69 45.2516 124.715 45.4608 124.715C45.4913 124.715 45.5217 124.715 45.5522 124.715C45.7394 124.716 45.9205 124.693 46.0999 124.646C46.1168 124.641 46.1168 124.641 46.134 124.637C46.4036 124.563 46.6392 124.439 46.8514 124.281C46.8586 124.275 46.8657 124.27 46.873 124.265C46.9765 124.187 47.0676 124.107 47.1514 124.013C47.1614 124.002 47.1715 123.992 47.1818 123.981C47.5119 123.621 47.6327 123.175 47.5723 122.726C47.517 122.356 47.3401 122.005 47.0559 121.722C47.0451 121.711 47.0342 121.7 47.0231 121.689C46.9614 121.629 46.8969 121.574 46.8242 121.524C46.8051 121.511 46.8051 121.511 46.7856 121.497C46.5813 121.356 46.3423 121.251 46.0897 121.19C46.0809 121.187 46.0721 121.185 46.063 121.183C45.8679 121.139 45.6724 121.122 45.4711 121.123C45.4601 121.123 45.4492 121.123 45.4379 121.124C45.2593 121.124 45.0887 121.135 44.9155 121.175Z" fill="#450000"/>
<path d="M159.092 120.693C159.105 120.693 159.118 120.693 159.131 120.694C159.333 120.694 159.526 120.702 159.722 120.745C159.733 120.748 159.745 120.75 159.757 120.753C160.387 120.89 160.954 121.259 161.287 121.734C161.436 121.951 161.539 122.175 161.603 122.42C161.606 122.433 161.606 122.433 161.61 122.446C161.741 122.961 161.612 123.534 161.286 123.979C161.249 124.027 161.209 124.073 161.167 124.118C161.158 124.127 161.158 124.127 161.15 124.137C160.717 124.603 160.113 124.901 159.419 124.973C159.353 124.979 159.288 124.981 159.222 124.982C159.21 124.982 159.198 124.982 159.185 124.982C158.668 124.986 158.668 124.986 158.413 124.932C158.395 124.929 158.395 124.929 158.377 124.925C157.955 124.833 157.593 124.655 157.281 124.397C157.274 124.392 157.268 124.386 157.261 124.381C156.796 124.004 156.52 123.453 156.502 122.908C156.49 122.345 156.72 121.79 157.172 121.376C157.191 121.358 157.21 121.339 157.227 121.32C157.267 121.278 157.314 121.245 157.363 121.21C157.374 121.203 157.374 121.203 157.385 121.195C157.869 120.847 158.463 120.69 159.092 120.693ZM158.495 121.094C158.484 121.096 158.474 121.099 158.463 121.101C158.137 121.176 157.854 121.334 157.614 121.532C157.597 121.545 157.581 121.559 157.564 121.572C157.213 121.857 157.013 122.291 156.993 122.7C156.984 123.046 157.034 123.363 157.213 123.676C157.219 123.687 157.226 123.699 157.233 123.71C157.478 124.117 157.926 124.419 158.433 124.558C158.634 124.609 158.831 124.634 159.04 124.634C159.07 124.634 159.101 124.634 159.131 124.634C159.319 124.635 159.5 124.611 159.679 124.564C159.696 124.56 159.696 124.56 159.713 124.556C159.983 124.482 160.218 124.358 160.431 124.2C160.438 124.194 160.445 124.189 160.452 124.183C160.556 124.106 160.647 124.026 160.73 123.932C160.741 123.921 160.751 123.911 160.761 123.9C161.091 123.54 161.212 123.094 161.151 122.645C161.096 122.275 160.919 121.924 160.635 121.641C160.624 121.63 160.613 121.619 160.602 121.608C160.54 121.548 160.476 121.493 160.403 121.443C160.384 121.429 160.384 121.429 160.365 121.416C160.16 121.275 159.921 121.17 159.669 121.109C159.66 121.106 159.651 121.104 159.642 121.102C159.447 121.057 159.252 121.041 159.05 121.042C159.039 121.042 159.028 121.042 159.017 121.042C158.838 121.043 158.668 121.054 158.495 121.094Z" fill="#450000"/>
<path d="M107.562 120.616C107.584 120.635 107.607 120.655 107.63 120.674C107.638 120.681 107.646 120.688 107.654 120.695C107.703 120.736 107.748 120.778 107.793 120.822C107.827 120.855 107.861 120.887 107.896 120.919C107.945 120.965 107.994 121.011 108.042 121.058C108.09 121.105 108.14 121.151 108.189 121.198C108.209 121.217 108.23 121.237 108.25 121.256C108.26 121.266 108.27 121.275 108.281 121.285C108.373 121.372 108.373 121.372 108.403 121.401C108.424 121.421 108.445 121.441 108.466 121.46C108.512 121.504 108.558 121.547 108.603 121.592C108.65 121.638 108.698 121.683 108.747 121.728C108.79 121.768 108.832 121.808 108.873 121.848C108.903 121.878 108.935 121.907 108.966 121.936C109.005 121.973 109.043 122.009 109.081 122.046C109.121 122.086 109.163 122.125 109.204 122.163C109.254 122.209 109.302 122.255 109.35 122.302C109.381 122.332 109.412 122.361 109.443 122.39C109.482 122.426 109.52 122.463 109.558 122.5C109.598 122.539 109.64 122.578 109.681 122.617C109.731 122.663 109.78 122.709 109.827 122.756C109.858 122.785 109.889 122.814 109.92 122.844C109.959 122.88 109.997 122.916 110.035 122.953C110.082 122.999 110.13 123.044 110.178 123.089C110.221 123.128 110.262 123.168 110.304 123.209C110.337 123.24 110.37 123.272 110.404 123.303C110.454 123.349 110.503 123.396 110.551 123.443C110.599 123.49 110.648 123.536 110.697 123.582C110.728 123.611 110.759 123.64 110.789 123.67C110.809 123.688 110.829 123.707 110.849 123.726C110.983 123.852 111.111 123.98 111.229 124.117C111.228 124.109 111.228 124.102 111.228 124.093C111.217 123.891 111.213 123.689 111.214 123.487C111.214 123.457 111.214 123.426 111.214 123.396C111.214 123.332 111.214 123.268 111.214 123.203C111.214 123.111 111.214 123.018 111.214 122.925C111.214 122.774 111.214 122.623 111.214 122.473C111.214 122.326 111.214 122.18 111.214 122.034C111.214 122.02 111.214 122.02 111.214 122.006C111.215 121.961 111.215 121.916 111.215 121.87C111.215 121.495 111.215 121.119 111.215 120.744C111.364 120.744 111.512 120.744 111.665 120.744C111.665 122.176 111.665 123.608 111.665 125.083C111.602 125.037 111.549 124.996 111.495 124.945C111.485 124.935 111.485 124.935 111.475 124.926C111.432 124.886 111.39 124.845 111.348 124.803C111.32 124.776 111.291 124.749 111.263 124.722C111.227 124.688 111.19 124.653 111.155 124.618C111.116 124.581 111.077 124.544 111.038 124.507C110.991 124.463 110.944 124.418 110.899 124.373C110.87 124.346 110.842 124.319 110.813 124.292C110.776 124.257 110.74 124.222 110.704 124.187C110.648 124.132 110.591 124.078 110.534 124.024C110.469 123.963 110.404 123.901 110.34 123.839C110.312 123.811 110.283 123.784 110.254 123.757C110.217 123.722 110.181 123.687 110.145 123.652C110.089 123.597 110.032 123.543 109.975 123.489C109.91 123.428 109.845 123.366 109.781 123.304C109.742 123.266 109.703 123.229 109.664 123.192C109.638 123.167 109.612 123.143 109.587 123.118C109.549 123.08 109.509 123.043 109.47 123.006C109.423 122.962 109.377 122.918 109.331 122.873C109.303 122.846 109.274 122.818 109.245 122.791C109.209 122.757 109.172 122.722 109.136 122.687C109.08 122.632 109.023 122.578 108.966 122.524C108.901 122.462 108.836 122.401 108.772 122.338C108.734 122.301 108.694 122.264 108.655 122.226C108.629 122.202 108.603 122.177 108.578 122.152C108.529 122.104 108.479 122.058 108.429 122.011C108.351 121.937 108.276 121.862 108.202 121.786C108.194 121.778 108.187 121.77 108.178 121.761C108.121 121.702 108.067 121.642 108.011 121.582C108.011 122.683 108.011 123.785 108.011 124.92C107.863 124.92 107.714 124.92 107.562 124.92C107.562 123.5 107.562 122.079 107.562 120.616Z" fill="#450000"/>
<path d="M52.1689 120.595C52.1914 120.614 52.2139 120.633 52.2371 120.653C52.2451 120.66 52.2531 120.666 52.2613 120.673C52.3101 120.714 52.3558 120.756 52.4005 120.801C52.434 120.833 52.4685 120.865 52.503 120.897C52.5526 120.943 52.6017 120.99 52.6497 121.037C52.6978 121.084 52.7471 121.13 52.7961 121.176C52.8165 121.196 52.837 121.215 52.8574 121.234C52.8675 121.244 52.8777 121.254 52.8881 121.264C52.9801 121.351 52.9801 121.351 53.0107 121.38C53.0315 121.399 53.0523 121.419 53.0731 121.439C53.1192 121.482 53.1651 121.526 53.2102 121.57C53.2573 121.616 53.3058 121.661 53.3544 121.706C53.3971 121.746 53.439 121.786 53.4803 121.827C53.5109 121.857 53.542 121.886 53.5732 121.915C53.612 121.951 53.6505 121.988 53.6882 122.025C53.7286 122.064 53.7701 122.103 53.8117 122.142C53.8611 122.187 53.9098 122.234 53.9575 122.281C53.988 122.31 54.0192 122.339 54.0503 122.369C54.0891 122.405 54.1277 122.441 54.1654 122.478C54.2057 122.518 54.2472 122.557 54.2889 122.595C54.3383 122.641 54.3869 122.687 54.4347 122.734C54.4652 122.764 54.4963 122.793 54.5275 122.822C54.5663 122.858 54.6048 122.895 54.6425 122.932C54.6893 122.978 54.7376 123.023 54.7859 123.067C54.8283 123.107 54.8699 123.147 54.9109 123.187C54.9439 123.219 54.9777 123.25 55.0115 123.282C55.0612 123.328 55.1102 123.374 55.1582 123.421C55.2064 123.468 55.2556 123.514 55.3046 123.561C55.3353 123.59 55.3661 123.619 55.3968 123.648C55.4166 123.667 55.4366 123.686 55.4565 123.704C55.5904 123.83 55.7186 123.958 55.8363 124.096C55.8359 124.088 55.8355 124.08 55.8351 124.072C55.8249 123.87 55.8207 123.668 55.8211 123.465C55.8211 123.435 55.8211 123.405 55.8211 123.375C55.8211 123.31 55.8211 123.246 55.8212 123.182C55.8213 123.089 55.8214 122.996 55.8214 122.903C55.8214 122.753 55.8215 122.602 55.8216 122.451C55.8217 122.305 55.8218 122.159 55.8219 122.012C55.8219 121.999 55.8219 121.999 55.8219 121.985C55.8219 121.94 55.8219 121.894 55.822 121.849C55.8221 121.473 55.8223 121.098 55.8226 120.723C55.9711 120.723 56.1196 120.723 56.2725 120.723C56.2725 122.154 56.2725 123.586 56.2725 125.061C56.2099 125.015 56.1565 124.974 56.1021 124.923C56.0924 124.914 56.0924 124.914 56.0826 124.905C56.0397 124.864 55.9974 124.823 55.9555 124.782C55.9274 124.755 55.8989 124.728 55.8704 124.701C55.834 124.666 55.7978 124.632 55.7622 124.597C55.7238 124.559 55.6847 124.522 55.6454 124.485C55.5983 124.441 55.5519 124.397 55.506 124.352C55.4778 124.324 55.4492 124.297 55.4205 124.27C55.3838 124.236 55.3474 124.201 55.3114 124.166C55.2554 124.111 55.1982 124.057 55.141 124.003C55.076 123.941 55.0113 123.88 54.9476 123.817C54.9191 123.79 54.8903 123.762 54.8615 123.735C54.8248 123.701 54.7884 123.666 54.7524 123.631C54.6964 123.576 54.6392 123.522 54.582 123.468C54.517 123.406 54.4523 123.345 54.3886 123.282C54.3498 123.245 54.3103 123.208 54.271 123.17C54.2452 123.146 54.2197 123.121 54.1943 123.096C54.156 123.059 54.1169 123.022 54.0776 122.985C54.0305 122.941 53.9841 122.897 53.9382 122.852C53.91 122.824 53.8813 122.797 53.8526 122.77C53.816 122.735 53.7795 122.7 53.7436 122.665C53.6875 122.61 53.6303 122.556 53.5732 122.502C53.5082 122.441 53.4434 122.379 53.3797 122.317C53.341 122.279 53.3015 122.242 53.2621 122.205C53.2363 122.18 53.2108 122.156 53.1855 122.131C53.1367 122.083 53.0866 122.036 53.0364 121.989C52.9586 121.916 52.8833 121.841 52.8097 121.764C52.8018 121.756 52.794 121.748 52.7858 121.74C52.7289 121.681 52.674 121.621 52.6188 121.56C52.6188 122.662 52.6188 123.763 52.6188 124.898C52.4704 124.898 52.3219 124.898 52.1689 124.898C52.1689 123.478 52.1689 122.058 52.1689 120.595Z" fill="#450000"/>
<path d="M118.544 120.778C118.563 120.778 118.563 120.778 118.582 120.777C118.608 120.777 118.635 120.777 118.661 120.777C118.7 120.777 118.74 120.777 118.779 120.776C119.006 120.775 119.231 120.792 119.449 120.846C119.461 120.849 119.474 120.852 119.486 120.855C119.948 120.97 120.37 121.192 120.689 121.501C120.693 121.513 120.698 121.524 120.703 121.536C120.679 121.563 120.656 121.588 120.629 121.612C120.622 121.62 120.614 121.627 120.607 121.634C120.584 121.656 120.562 121.677 120.539 121.699C120.526 121.711 120.514 121.723 120.501 121.736C120.473 121.762 120.445 121.789 120.416 121.815C120.356 121.797 120.324 121.756 120.285 121.716C119.959 121.383 119.47 121.194 118.971 121.141C118.934 121.139 118.897 121.138 118.859 121.138C118.849 121.138 118.838 121.138 118.827 121.138C118.598 121.136 118.376 121.136 118.153 121.187C118.143 121.189 118.134 121.192 118.123 121.194C117.82 121.263 117.552 121.39 117.322 121.571C117.309 121.581 117.296 121.591 117.283 121.601C117.055 121.787 116.879 122.026 116.776 122.28C116.773 122.288 116.77 122.295 116.767 122.303C116.719 122.421 116.687 122.54 116.667 122.664C116.666 122.672 116.665 122.68 116.663 122.688C116.595 123.144 116.714 123.627 117.039 123.997C117.101 124.065 117.17 124.126 117.24 124.188C117.248 124.196 117.257 124.204 117.265 124.211C117.586 124.501 118.099 124.684 118.562 124.702C118.581 124.702 118.6 124.702 118.619 124.703C118.629 124.703 118.639 124.703 118.65 124.703C118.87 124.705 119.085 124.706 119.298 124.653C119.308 124.651 119.318 124.649 119.328 124.646C119.564 124.587 119.779 124.486 119.966 124.351C119.977 124.344 119.987 124.337 119.997 124.33C120.396 124.051 120.5 123.608 120.58 123.199C120.148 123.199 119.716 123.199 119.271 123.199C119.271 123.088 119.271 122.977 119.271 122.862C119.847 122.862 120.423 122.862 121.016 122.862C121.016 123.319 120.958 123.728 120.703 124.13C120.698 124.137 120.694 124.144 120.69 124.151C120.528 124.413 120.285 124.623 119.994 124.781C119.986 124.786 119.978 124.79 119.969 124.795C119.598 124.996 119.16 125.068 118.727 125.065C118.708 125.065 118.708 125.065 118.689 125.065C118.508 125.064 118.33 125.06 118.153 125.025C118.135 125.022 118.135 125.022 118.116 125.018C117.664 124.932 117.269 124.756 116.926 124.49C116.914 124.481 116.901 124.471 116.888 124.461C116.729 124.331 116.598 124.177 116.49 124.014C116.485 124.006 116.48 123.999 116.475 123.991C116.138 123.481 116.063 122.879 116.245 122.315C116.362 121.982 116.569 121.648 116.872 121.408C116.883 121.399 116.894 121.389 116.906 121.379C116.917 121.369 116.928 121.36 116.94 121.35C116.946 121.344 116.953 121.338 116.959 121.332C117.35 120.982 117.984 120.78 118.544 120.778Z" fill="#450000"/>
<path d="M63.0431 120.778C63.0618 120.778 63.0618 120.778 63.0809 120.777C63.1073 120.777 63.1337 120.777 63.1601 120.777C63.1994 120.777 63.2387 120.777 63.2781 120.776C63.5047 120.775 63.7297 120.792 63.9482 120.846C63.9605 120.849 63.9728 120.852 63.9854 120.855C64.4469 120.97 64.8688 121.192 65.188 121.501C65.1925 121.513 65.197 121.524 65.2016 121.536C65.1782 121.563 65.1547 121.588 65.1284 121.612C65.1209 121.62 65.1135 121.627 65.1059 121.634C65.0834 121.656 65.0607 121.677 65.038 121.699C65.0253 121.711 65.0126 121.723 64.9998 121.736C64.9718 121.762 64.9437 121.789 64.9153 121.815C64.8554 121.797 64.8229 121.756 64.7841 121.716C64.4579 121.383 63.9694 121.194 63.4702 121.141C63.4328 121.139 63.3956 121.138 63.3581 121.138C63.3476 121.138 63.337 121.138 63.3261 121.138C63.0967 121.136 62.8755 121.136 62.6522 121.187C62.6424 121.189 62.6326 121.192 62.6224 121.194C62.3187 121.263 62.0515 121.39 61.8206 121.571C61.8079 121.581 61.7952 121.591 61.7821 121.601C61.5537 121.787 61.3783 122.026 61.2753 122.28C61.2722 122.288 61.2692 122.295 61.266 122.303C61.2176 122.421 61.1865 122.54 61.1662 122.664C61.1649 122.672 61.1636 122.68 61.1623 122.688C61.0941 123.144 61.2135 123.627 61.5382 123.997C61.5998 124.065 61.669 124.126 61.7388 124.188C61.7472 124.196 61.7555 124.204 61.7642 124.211C62.0846 124.501 62.598 124.684 63.0608 124.702C63.0798 124.702 63.0987 124.702 63.1176 124.703C63.1279 124.703 63.1382 124.703 63.1488 124.703C63.3694 124.705 63.5836 124.706 63.7974 124.653C63.8073 124.651 63.8172 124.649 63.8273 124.646C64.0633 124.587 64.2781 124.486 64.4655 124.351C64.4756 124.344 64.4857 124.337 64.4962 124.33C64.8947 124.051 64.9991 123.608 65.0789 123.199C64.647 123.199 64.2151 123.199 63.7702 123.199C63.7702 123.088 63.7702 122.977 63.7702 122.862C64.346 122.862 64.9219 122.862 65.5152 122.862C65.5152 123.319 65.4573 123.728 65.2016 124.13C65.1973 124.137 65.193 124.144 65.1886 124.151C65.0273 124.413 64.784 124.623 64.4927 124.781C64.4847 124.786 64.4766 124.79 64.4684 124.795C64.0975 124.996 63.6592 125.068 63.2257 125.065C63.2069 125.065 63.2069 125.065 63.1877 125.065C63.0067 125.064 62.8295 125.06 62.6522 125.025C62.6337 125.022 62.6337 125.022 62.6148 125.018C62.1627 124.932 61.7679 124.756 61.4252 124.49C61.4127 124.481 61.4001 124.471 61.3872 124.461C61.2282 124.331 61.0969 124.177 60.989 124.014C60.9841 124.006 60.9792 123.999 60.9741 123.991C60.6367 123.481 60.5622 122.879 60.7436 122.315C60.861 121.982 61.0684 121.648 61.3707 121.408C61.382 121.399 61.3932 121.389 61.4048 121.379C61.416 121.369 61.4273 121.36 61.4389 121.35C61.4452 121.344 61.4515 121.338 61.4581 121.332C61.8487 120.982 62.4835 120.78 63.0431 120.778Z" fill="#450000"/>
<path d="M166.007 120.756C167.83 120.756 167.83 120.756 168.219 121.078C168.469 121.294 168.573 121.591 168.572 121.889C168.568 122.164 168.46 122.413 168.243 122.617C168.234 122.625 168.226 122.633 168.217 122.642C167.997 122.846 167.667 122.924 167.357 122.966C167.607 123.295 167.861 123.623 168.117 123.95C168.21 124.069 168.303 124.189 168.395 124.309C168.457 124.392 168.521 124.474 168.584 124.556C168.593 124.567 168.601 124.577 168.61 124.589C168.661 124.655 168.661 124.655 168.712 124.721C168.736 124.752 168.76 124.783 168.784 124.813C168.791 124.823 168.798 124.832 168.806 124.842C168.813 124.851 168.819 124.859 168.826 124.868C168.835 124.879 168.835 124.879 168.844 124.891C168.856 124.908 168.856 124.908 168.856 124.92C168.361 124.967 168.361 124.967 168.224 124.896C168.155 124.835 168.114 124.761 168.074 124.684C168.035 124.607 167.982 124.541 167.927 124.472C167.899 124.437 167.872 124.401 167.845 124.366C167.834 124.351 167.823 124.337 167.812 124.323C167.763 124.259 167.715 124.196 167.666 124.133C167.639 124.097 167.612 124.062 167.585 124.027C167.574 124.013 167.563 123.999 167.553 123.985C167.547 123.978 167.542 123.971 167.536 123.964C167.488 123.901 167.488 123.901 167.472 123.88C167.461 123.866 167.45 123.851 167.439 123.837C167.412 123.802 167.385 123.767 167.358 123.732C167.285 123.637 167.285 123.637 167.212 123.541C167.201 123.527 167.19 123.513 167.179 123.499C167.152 123.463 167.125 123.428 167.097 123.393C167.048 123.33 167.001 123.268 166.958 123.202C166.939 123.174 166.919 123.145 166.9 123.117C166.887 123.097 166.874 123.077 166.862 123.057C166.835 123.015 166.835 123.015 166.77 122.966C166.685 122.962 166.599 122.958 166.511 122.954C166.511 123.603 166.511 124.252 166.511 124.92C166.345 124.92 166.178 124.92 166.007 124.92C166.007 123.546 166.007 122.172 166.007 120.756ZM166.511 121.093C166.511 121.6 166.511 122.106 166.511 122.629C166.791 122.629 166.791 122.629 167.071 122.625C167.085 122.625 167.085 122.625 167.099 122.624C167.379 122.62 167.631 122.571 167.843 122.405C168.036 122.231 168.061 122.003 168.054 121.776C168.044 121.621 167.982 121.466 167.861 121.349C167.853 121.341 167.845 121.333 167.836 121.325C167.603 121.113 167.271 121.106 166.952 121.096C166.805 121.092 166.659 121.093 166.511 121.093Z" fill="#450000"/>
<path d="M83.4843 120.663C83.5228 120.679 83.5254 120.698 83.5414 120.732C83.5474 120.745 83.5535 120.757 83.5597 120.77C83.5663 120.784 83.5729 120.798 83.5798 120.813C83.5907 120.836 83.6017 120.859 83.6126 120.882C83.6206 120.898 83.6286 120.915 83.6365 120.931C83.6827 121.028 83.73 121.124 83.7773 121.22C83.793 121.252 83.8087 121.284 83.8244 121.316C83.8458 121.36 83.8672 121.403 83.8886 121.447C83.9351 121.542 83.9816 121.636 84.028 121.731C84.0433 121.762 84.0587 121.794 84.074 121.825C84.1199 121.918 84.1658 122.012 84.2116 122.105C84.3218 122.33 84.4323 122.555 84.5435 122.779C84.6331 122.96 84.7222 123.141 84.8106 123.323C84.8148 123.331 84.8189 123.34 84.8231 123.349C84.8273 123.357 84.8314 123.366 84.8357 123.374C84.8886 123.483 84.9418 123.591 84.9951 123.7C85.0002 123.71 85.0053 123.721 85.0106 123.731C85.0367 123.785 85.0628 123.838 85.089 123.891C85.1199 123.954 85.1509 124.017 85.1818 124.08C85.1869 124.09 85.1919 124.101 85.1972 124.111C85.2225 124.163 85.2478 124.215 85.2731 124.266C85.3213 124.365 85.3696 124.463 85.418 124.561C85.4411 124.608 85.4641 124.654 85.4871 124.701C85.4981 124.723 85.5092 124.746 85.5203 124.768C85.5356 124.799 85.5508 124.83 85.566 124.861C85.5706 124.87 85.5752 124.879 85.58 124.889C85.6111 124.952 85.6111 124.952 85.6111 124.978C85.4536 124.978 85.2962 124.978 85.1339 124.978C85.0897 124.903 85.0482 124.829 85.0111 124.751C85.0036 124.736 85.0036 124.736 84.996 124.72C84.9797 124.686 84.9635 124.652 84.9473 124.618C84.9243 124.571 84.9012 124.523 84.8782 124.475C84.8694 124.457 84.8694 124.457 84.8604 124.438C84.8195 124.353 84.7782 124.269 84.7366 124.184C84.731 124.173 84.7254 124.161 84.7196 124.15C84.698 124.106 84.6763 124.062 84.6545 124.018C84.6396 123.988 84.6248 123.958 84.6099 123.928C84.6056 123.919 84.6012 123.91 84.5968 123.901C84.5676 123.842 84.5444 123.784 84.5204 123.722C83.8501 123.722 83.1798 123.722 82.4891 123.722C82.4756 123.757 82.4621 123.791 82.4482 123.827C82.4329 123.86 82.4173 123.893 82.4012 123.925C82.3967 123.935 82.3922 123.944 82.3875 123.953C82.3779 123.973 82.3682 123.993 82.3585 124.013C82.3325 124.066 82.3066 124.119 82.2807 124.172C82.2753 124.183 82.27 124.194 82.2645 124.205C82.2046 124.328 82.1455 124.451 82.0865 124.574C82.0218 124.709 81.9558 124.844 81.8892 124.978C81.7273 124.978 81.5653 124.978 81.3984 124.978C81.5615 124.628 81.7303 124.28 81.899 123.932C81.9733 123.779 82.0473 123.626 82.121 123.472C82.1994 123.309 82.2781 123.146 82.357 122.983C82.3624 122.972 82.3678 122.961 82.3734 122.949C82.4175 122.858 82.4616 122.767 82.5057 122.676C82.5442 122.596 82.5827 122.517 82.6212 122.438C82.6266 122.426 82.632 122.415 82.6375 122.404C82.7155 122.243 82.7931 122.082 82.8704 121.921C82.9506 121.754 83.0313 121.587 83.1122 121.42C83.1713 121.298 83.2303 121.176 83.2888 121.054C83.2938 121.044 83.2989 121.033 83.3041 121.022C83.3279 120.973 83.3517 120.923 83.3754 120.873C83.3839 120.855 83.3924 120.838 83.4008 120.82C83.4046 120.812 83.4083 120.804 83.4121 120.796C83.434 120.751 83.4579 120.707 83.4843 120.663ZM83.4843 121.594C83.4819 121.6 83.4795 121.606 83.477 121.612C83.3195 121.998 83.1391 122.377 82.9532 122.754C82.8974 122.867 82.8423 122.98 82.7873 123.094C82.7697 123.13 82.752 123.166 82.7344 123.202C82.7236 123.224 82.7129 123.246 82.7022 123.269C82.6972 123.279 82.6921 123.289 82.687 123.3C82.6824 123.309 82.6779 123.318 82.6732 123.328C82.6692 123.336 82.6653 123.344 82.6612 123.353C82.6512 123.373 82.6512 123.373 82.6527 123.396C83.2151 123.396 83.7774 123.396 84.3568 123.396C84.2935 123.251 84.2935 123.251 84.2251 123.107C84.2208 123.099 84.2165 123.09 84.2121 123.081C84.2031 123.063 84.1941 123.045 84.185 123.027C84.1608 122.978 84.1367 122.929 84.1126 122.881C84.1078 122.871 84.1029 122.861 84.098 122.851C84.0503 122.755 84.0034 122.659 83.9567 122.562C83.9172 122.48 83.8774 122.399 83.8375 122.317C83.7201 122.077 83.6059 121.837 83.498 121.594C83.4935 121.594 83.489 121.594 83.4843 121.594Z" fill="#450000"/>
<path d="M178.331 120.756C179.24 120.756 180.149 120.756 181.085 120.756C181.085 120.867 181.085 120.978 181.085 121.093C180.325 121.093 179.564 121.093 178.781 121.093C178.781 121.561 178.781 122.03 178.781 122.512C179.541 122.512 180.302 122.512 181.085 122.512C181.085 122.627 181.085 122.742 181.085 122.861C180.325 122.861 179.564 122.861 178.781 122.861C178.781 123.429 178.781 123.997 178.781 124.583C179.541 124.583 180.302 124.583 181.085 124.583C181.085 124.698 181.085 124.813 181.085 124.932C180.176 124.932 179.267 124.932 178.331 124.932C178.331 123.554 178.331 122.176 178.331 120.756Z" fill="#450000"/>
<path d="M140.198 120.838C141.103 120.838 142.007 120.838 142.939 120.838C142.939 120.949 142.939 121.061 142.939 121.175C142.183 121.175 141.427 121.175 140.648 121.175C140.648 121.643 140.648 122.112 140.648 122.594C141.404 122.594 142.16 122.594 142.939 122.594C142.939 122.709 142.939 122.825 142.939 122.943C142.183 122.943 141.427 122.943 140.648 122.943C140.648 123.511 140.648 124.079 140.648 124.665C141.404 124.665 142.16 124.665 142.939 124.665C142.939 124.78 142.939 124.895 142.939 125.014C142.034 125.014 141.13 125.014 140.198 125.014C140.198 123.636 140.198 122.258 140.198 120.838Z" fill="#450000"/>
<path d="M187.095 120.966C187.298 121.1 187.44 121.275 187.533 121.479C187.533 121.49 187.533 121.502 187.533 121.514C187.407 121.567 187.281 121.621 187.151 121.677C187.117 121.648 187.103 121.633 187.083 121.599C187.076 121.587 187.076 121.587 187.068 121.574C187.063 121.566 187.058 121.557 187.053 121.548C187.004 121.467 186.952 121.395 186.878 121.328C186.87 121.32 186.862 121.313 186.854 121.305C186.692 121.172 186.491 121.137 186.275 121.137C186.1 121.14 185.971 121.181 185.829 121.269C185.82 121.275 185.811 121.28 185.801 121.286C185.655 121.384 185.588 121.528 185.56 121.68C185.53 121.897 185.61 122.097 185.763 122.268C185.946 122.446 186.209 122.548 186.451 122.654C186.904 122.853 187.348 123.103 187.52 123.534C187.639 123.856 187.605 124.216 187.424 124.515C187.267 124.763 187.019 124.944 186.705 125.03C186.561 125.067 186.421 125.077 186.272 125.077C186.242 125.077 186.212 125.077 186.182 125.077C185.865 125.078 185.567 125.005 185.333 124.815C185.178 124.676 184.929 124.4 184.929 124.201C185.055 124.147 185.181 124.093 185.31 124.038C185.348 124.07 185.359 124.084 185.378 124.124C185.383 124.134 185.387 124.144 185.392 124.154C185.397 124.165 185.402 124.176 185.408 124.187C185.517 124.411 185.656 124.581 185.924 124.681C186.151 124.748 186.413 124.73 186.631 124.652C186.839 124.565 186.967 124.416 187.055 124.238C187.09 124.146 187.101 124.056 187.101 123.959C187.101 123.948 187.101 123.937 187.1 123.925C187.096 123.71 187.012 123.504 186.837 123.345C186.638 123.186 186.39 123.083 186.152 122.975C185.93 122.874 185.706 122.772 185.515 122.63C185.506 122.624 185.497 122.618 185.487 122.612C185.248 122.447 185.113 122.177 185.079 121.921C185.06 121.623 185.109 121.344 185.35 121.115C185.788 120.715 186.572 120.656 187.095 120.966Z" fill="#450000"/>
<path d="M91.7978 120.884C92.0016 121.018 92.1432 121.193 92.2358 121.397C92.2358 121.408 92.2358 121.42 92.2358 121.432C92.1098 121.485 91.9838 121.539 91.8541 121.595C91.8205 121.566 91.8059 121.551 91.7862 121.517C91.7789 121.505 91.7789 121.505 91.7715 121.492C91.7664 121.484 91.7613 121.475 91.7561 121.466C91.707 121.385 91.6551 121.313 91.5814 121.246C91.5734 121.238 91.5653 121.231 91.557 121.223C91.3954 121.09 91.194 121.055 90.9778 121.055C90.8028 121.058 90.6737 121.099 90.5316 121.187C90.5227 121.193 90.5137 121.198 90.5045 121.204C90.3585 121.302 90.2912 121.446 90.2633 121.598C90.2332 121.815 90.3127 122.015 90.466 122.186C90.6491 122.364 90.9124 122.466 91.1545 122.572C91.6071 122.771 92.0514 123.021 92.2234 123.452C92.342 123.774 92.3078 124.134 92.1267 124.433C91.9704 124.681 91.7224 124.861 91.4084 124.948C91.2646 124.985 91.1243 124.995 90.975 124.995C90.9452 124.995 90.9153 124.995 90.8855 124.995C90.5686 124.996 90.2699 124.923 90.0361 124.732C89.8811 124.594 89.6318 124.318 89.6318 124.119C89.7578 124.065 89.8838 124.011 90.0136 123.956C90.0512 123.988 90.0625 124.002 90.081 124.042C90.0858 124.052 90.0905 124.062 90.0954 124.072C90.1005 124.083 90.1055 124.094 90.1107 124.105C90.2198 124.329 90.3587 124.499 90.6275 124.599C90.8538 124.666 91.1165 124.648 91.3341 124.57C91.5423 124.483 91.6701 124.334 91.758 124.156C91.7931 124.064 91.8045 123.974 91.8038 123.877C91.8037 123.866 91.8036 123.855 91.8036 123.843C91.7994 123.628 91.7155 123.422 91.5396 123.263C91.3416 123.104 91.0928 123.001 90.855 122.893C90.6327 122.792 90.4096 122.69 90.2181 122.548C90.209 122.542 90.1999 122.536 90.1905 122.53C89.9512 122.365 89.8158 122.095 89.7818 121.839C89.7631 121.541 89.8121 121.262 90.0532 121.033C90.4911 120.633 91.2746 120.574 91.7978 120.884Z" fill="#450000"/>
<path d="M96.1084 120.756C97.0667 120.756 98.025 120.756 99.0123 120.756C99.0123 120.863 99.0123 120.971 99.0123 121.082C98.6074 121.082 98.2025 121.082 97.7853 121.082C97.7853 122.348 97.7853 123.615 97.7853 124.92C97.6368 124.92 97.4884 124.92 97.3354 124.92C97.3354 123.653 97.3354 122.387 97.3354 121.082C96.9305 121.082 96.5256 121.082 96.1084 121.082C96.1084 120.974 96.1084 120.867 96.1084 120.756Z" fill="#450000"/>
<path d="M75.2637 120.908C75.4076 120.908 75.5516 120.908 75.6999 120.908C75.6999 122.125 75.6999 123.342 75.6999 124.595C76.2893 124.595 76.8787 124.595 77.4859 124.595C77.4859 124.703 77.4859 124.81 77.4859 124.921C76.7526 124.921 76.0192 124.921 75.2637 124.921C75.2637 123.597 75.2637 122.273 75.2637 120.908Z" fill="#450000"/>
<path d="M36.7637 120.896C36.9076 120.896 37.0516 120.896 37.1999 120.896C37.1999 122.112 37.1999 123.329 37.1999 124.583C37.7893 124.583 38.3787 124.583 38.9859 124.583C38.9859 124.69 38.9859 124.798 38.9859 124.908C38.2526 124.908 37.5192 124.908 36.7637 124.908C36.7637 123.584 36.7637 122.26 36.7637 120.896Z" fill="#450000"/>
<path d="M102.884 120.756C103.032 120.756 103.181 120.756 103.334 120.756C103.334 122.13 103.334 123.504 103.334 124.92C103.185 124.92 103.037 124.92 102.884 124.92C102.884 123.546 102.884 122.172 102.884 120.756Z" fill="#450000"/>
<path d="M173.286 120.733C173.435 120.733 173.583 120.733 173.736 120.733C173.736 122.108 173.736 123.482 173.736 124.897C173.588 124.897 173.439 124.897 173.286 124.897C173.286 123.523 173.286 122.149 173.286 120.733Z" fill="#450000"/>
<path d="M12 72C18.519 72 25.038 72 31.7545 72C31.7545 72.2457 31.7545 72.4913 31.7545 72.7444C29.5096 72.7444 27.2646 72.7444 24.9516 72.7444C24.9516 84.5435 24.9516 96.3425 24.9516 108.499C30.8986 108.594 30.8986 108.594 36.8363 108.461C36.8489 108.461 36.8615 108.46 36.8745 108.459C37.912 108.398 38.9311 108.236 39.9208 107.964C39.9379 107.959 39.9549 107.955 39.9724 107.95C40.3699 107.84 40.7579 107.704 41.1349 107.55C41.1751 107.534 41.2155 107.518 41.2559 107.502C41.4375 107.429 41.614 107.35 41.7886 107.266C41.8031 107.259 41.8175 107.252 41.8325 107.245C42.0072 107.161 42.1802 107.075 42.3472 106.98C42.3765 106.963 42.4059 106.946 42.4353 106.93C42.7254 106.767 43.004 106.592 43.2746 106.405C43.2876 106.397 43.3006 106.388 43.314 106.378C43.4523 106.282 43.5879 106.183 43.72 106.081C43.7406 106.065 43.7614 106.049 43.7823 106.033C43.9405 105.913 44.0942 105.789 44.2443 105.661C44.2536 105.653 44.263 105.645 44.2726 105.637C44.3257 105.592 44.3764 105.545 44.4253 105.496C44.4475 105.475 44.4708 105.454 44.4948 105.434C44.5362 105.4 44.5745 105.363 44.6124 105.326C44.6403 105.298 44.6689 105.271 44.6976 105.245C44.7507 105.194 44.8011 105.143 44.8509 105.09C44.8795 105.06 44.9084 105.031 44.9377 105.002C45.0152 104.924 45.0895 104.845 45.1626 104.765C45.1848 104.741 45.2071 104.716 45.2294 104.692C45.3296 104.584 45.4253 104.473 45.5177 104.36C45.5378 104.335 45.5581 104.311 45.5785 104.286C45.6768 104.168 45.7718 104.049 45.8649 103.928C45.8709 103.92 45.8768 103.913 45.8829 103.905C46.2299 103.457 46.5331 102.986 46.8192 102.509C46.8271 102.496 46.8349 102.483 46.8429 102.47C46.975 102.249 47.0972 102.026 47.2146 101.799C47.2191 101.791 47.2235 101.782 47.2281 101.773C47.726 100.812 48.1291 99.8178 48.7688 97.775C48.9982 97.775 49.2277 97.775 49.4641 97.775C49.4641 101.556 49.4641 105.337 49.4641 109.232C37.1009 109.232 24.7378 109.232 12 109.232C12 108.99 12 108.748 12 108.499C14.245 108.499 16.49 108.499 18.803 108.499C18.803 96.7001 18.803 84.901 18.803 72.7444C16.558 72.7444 14.313 72.7444 12 72.7444C12 72.4988 12 72.2531 12 72Z" fill="#450000"/>
<path d="M102 78.9434C111.362 78.9434 120.725 78.9434 130.371 78.9434C130.371 81.3615 130.371 83.7797 130.371 86.2711C130.186 86.2711 130.002 86.2711 129.812 86.2711C129.785 86.2032 129.758 86.1353 129.73 86.0654C129.458 85.3842 129.172 84.7057 128.822 84.0503C128.803 84.0154 128.785 83.9804 128.767 83.9454C128.594 83.62 128.411 83.2951 128.198 82.9877C128.174 82.9533 128.15 82.9186 128.127 82.8839C127.928 82.5906 127.709 82.3058 127.467 82.0373C127.46 82.0299 127.454 82.0226 127.447 82.015C127.368 81.9276 127.287 81.8429 127.203 81.7593C127.169 81.7255 127.136 81.691 127.104 81.6564C127.056 81.606 127.005 81.5603 126.95 81.515C126.924 81.4931 126.901 81.4707 126.877 81.447C126.783 81.3532 126.678 81.2651 126.567 81.1851C126.533 81.1601 126.5 81.1342 126.467 81.1082C126.401 81.0565 126.333 81.0069 126.262 80.959C126.247 80.9485 126.231 80.9379 126.216 80.9273C125.919 80.7206 125.593 80.5441 125.258 80.3856C125.247 80.3805 125.237 80.3753 125.226 80.37C124.228 79.8956 123.066 79.681 120.507 79.5561C120.399 79.5561 120.291 79.556 120.182 79.5558C119.984 79.5555 119.785 79.5553 119.586 79.5552C119.317 79.555 119.049 79.5547 118.78 79.5544C118.134 79.5536 117.489 79.5531 116.843 79.5526C114.679 79.5504 114.679 79.5504 112.47 79.5482C112.47 83.8586 112.47 88.1691 112.47 92.6102C116.342 92.8111 116.342 92.8111 120.091 91.6448C120.105 91.6353 120.119 91.6259 120.133 91.6161C120.243 91.5398 120.343 91.4557 120.443 91.3707C120.45 91.3651 120.456 91.3595 120.463 91.3537C120.555 91.2764 120.638 91.1956 120.718 91.1097C120.731 91.0969 120.744 91.0841 120.757 91.0713C121.369 90.4449 121.757 89.6507 122.072 88.8882C122.079 88.8723 122.085 88.8564 122.092 88.8406C122.357 88.2027 122.568 87.5506 122.766 86.8956C122.77 86.8829 122.77 86.8829 122.774 86.8701C122.788 86.8213 122.803 86.7725 122.818 86.7236C122.824 86.7017 122.831 86.6798 122.837 86.6579C122.843 86.6377 122.843 86.6377 122.85 86.617C122.853 86.6055 122.856 86.5939 122.86 86.582C122.879 86.5173 122.896 86.4523 122.913 86.3874C123.098 86.3874 123.282 86.3874 123.472 86.3874C123.472 90.7324 123.472 95.0774 123.472 99.5541C123.288 99.5541 123.103 99.5541 122.913 99.5541C122.899 99.5023 122.885 99.4505 122.87 99.3971C122.467 97.9051 122.467 97.9051 121.25 95.3087C121.244 95.2997 121.238 95.2908 121.231 95.2816C120.965 94.9048 120.625 94.533 120.228 94.2502C120.22 94.245 120.213 94.2398 120.206 94.2345C119.779 93.9305 119.306 93.6918 118.782 93.5291C118.763 93.5229 118.763 93.5229 118.743 93.5166C116.844 92.9286 114.114 93.2193 112.47 93.215C112.47 98.2509 112.47 103.287 112.47 108.475C114.035 108.474 115.6 108.472 117.212 108.471C117.706 108.471 118.199 108.47 118.708 108.47C119.151 108.469 119.151 108.469 119.595 108.469C119.805 108.469 120.015 108.468 120.225 108.468C120.44 108.468 120.655 108.468 120.869 108.468C120.986 108.468 121.102 108.467 121.218 108.467C121.79 108.468 121.79 108.468 122.362 108.453C122.379 108.452 122.379 108.452 122.396 108.452C123.523 108.404 124.636 108.186 127.457 106.829C127.49 106.805 127.524 106.782 127.557 106.759C127.794 106.593 128.015 106.415 128.232 106.23C128.243 106.221 128.243 106.221 128.254 106.212C128.336 106.142 128.415 106.072 128.489 105.998C128.511 105.977 128.534 105.957 128.556 105.936C128.612 105.884 128.664 105.83 128.716 105.775C128.745 105.746 128.774 105.716 128.803 105.687C128.877 105.613 128.948 105.537 129.017 105.46C129.035 105.439 129.054 105.418 129.073 105.397C129.232 105.218 129.382 105.034 129.525 104.846C129.532 104.837 129.54 104.828 129.547 104.818C129.673 104.652 129.792 104.483 129.907 104.311C129.913 104.302 129.92 104.293 129.926 104.283C130.064 104.075 130.193 103.863 130.316 103.648C130.322 103.637 130.329 103.627 130.335 103.615C130.894 102.646 131.295 101.603 131.693 99.7983C131.878 99.7983 132.062 99.7983 132.252 99.7983C132.252 102.858 132.252 105.917 132.252 109.069C122.269 109.069 112.286 109.069 102 109.069C102 108.873 102 108.677 102 108.475C103.813 108.475 105.626 108.475 107.494 108.475C107.494 98.9294 107.494 89.3834 107.494 79.5482C105.681 79.5482 103.868 79.5482 102 79.5482C102 79.3486 102 79.149 102 78.9434Z" fill="#450000"/>
<path d="M181.748 78.873C191.11 78.873 200.473 78.873 210.119 78.873C210.119 81.2912 210.119 83.7094 210.119 86.2008C209.934 86.2008 209.75 86.2008 209.56 86.2008C209.533 86.1329 209.506 86.065 209.478 85.9951C209.206 85.3139 208.92 84.6354 208.57 83.98C208.551 83.9451 208.533 83.9101 208.515 83.8751C208.342 83.5497 208.159 83.2248 207.946 82.9174C207.922 82.883 207.898 82.8483 207.875 82.8136C207.676 82.5203 207.457 82.2355 207.215 81.967C207.208 81.9596 207.202 81.9522 207.195 81.9447C207.116 81.8573 207.035 81.7726 206.951 81.689C206.917 81.6552 206.884 81.6207 206.852 81.5861C206.804 81.5357 206.753 81.49 206.698 81.4447C206.672 81.4228 206.649 81.4003 206.625 81.3767C206.531 81.2829 206.426 81.1948 206.315 81.1148C206.281 81.0898 206.248 81.0639 206.215 81.0379C206.149 80.9862 206.081 80.9366 206.01 80.8887C205.995 80.8782 205.979 80.8676 205.964 80.857C205.667 80.6503 205.341 80.4738 205.006 80.3153C204.996 80.3102 204.985 80.305 204.974 80.2997C203.976 79.8252 202.814 79.6107 200.255 79.4858C200.147 79.4858 200.039 79.4857 199.93 79.4855C199.732 79.4852 199.533 79.485 199.334 79.4849C199.065 79.4847 198.797 79.4844 198.528 79.4841C197.882 79.4833 197.237 79.4828 196.591 79.4822C194.427 79.4801 194.427 79.4801 192.218 79.4779C192.218 83.7883 192.218 88.0988 192.218 92.5399C196.09 92.7408 196.09 92.7408 199.839 91.5745C199.853 91.565 199.867 91.5555 199.881 91.5458C199.991 91.4695 200.091 91.3853 200.191 91.3004C200.198 91.2948 200.205 91.2892 200.211 91.2834C200.303 91.2061 200.386 91.1253 200.466 91.0394C200.479 91.0266 200.492 91.0138 200.505 91.001C201.117 90.3746 201.505 89.5804 201.82 88.8179C201.827 88.802 201.833 88.7861 201.84 88.7702C202.105 88.1324 202.316 87.4803 202.514 86.8252C202.518 86.8126 202.518 86.8126 202.522 86.7998C202.536 86.751 202.551 86.7021 202.566 86.6533C202.572 86.6314 202.579 86.6095 202.585 86.5876C202.591 86.5674 202.591 86.5674 202.598 86.5467C202.601 86.5352 202.605 86.5236 202.608 86.5117C202.627 86.447 202.644 86.382 202.661 86.3171C202.846 86.3171 203.03 86.3171 203.22 86.3171C203.22 90.6621 203.22 95.0071 203.22 99.4838C203.036 99.4838 202.851 99.4838 202.661 99.4838C202.647 99.432 202.633 99.3801 202.618 99.3268C202.215 97.8348 202.215 97.8348 200.998 95.2383C200.992 95.2294 200.986 95.2205 200.979 95.2113C200.713 94.8345 200.373 94.4627 199.976 94.1799C199.968 94.1747 199.961 94.1695 199.954 94.1641C199.527 93.8601 199.054 93.6215 198.531 93.4587C198.511 93.4526 198.511 93.4526 198.491 93.4463C196.592 92.8583 193.862 93.1489 192.218 93.1447C192.218 98.1806 192.218 103.217 192.218 108.405C193.783 108.404 195.348 108.402 196.96 108.401C197.454 108.4 197.947 108.4 198.456 108.399C198.899 108.399 198.899 108.399 199.343 108.398C199.553 108.398 199.763 108.398 199.973 108.398C200.188 108.398 200.403 108.398 200.618 108.397C200.734 108.397 200.85 108.397 200.966 108.397C201.538 108.398 201.538 108.398 202.11 108.383C202.127 108.382 202.127 108.382 202.144 108.381C203.271 108.334 204.384 108.115 207.205 106.758C207.238 106.735 207.272 106.712 207.305 106.689C207.542 106.523 207.763 106.345 207.98 106.16C207.991 106.151 207.991 106.151 208.002 106.141C208.084 106.072 208.163 106.002 208.237 105.928C208.259 105.907 208.282 105.886 208.304 105.866C208.36 105.814 208.413 105.76 208.464 105.705C208.493 105.675 208.522 105.646 208.551 105.617C208.626 105.543 208.696 105.467 208.765 105.389C208.783 105.368 208.802 105.347 208.821 105.327C208.98 105.148 209.13 104.964 209.274 104.776C209.281 104.767 209.288 104.758 209.295 104.748C209.421 104.582 209.54 104.413 209.655 104.241C209.661 104.232 209.668 104.222 209.674 104.213C209.812 104.005 209.941 103.792 210.064 103.578C210.071 103.567 210.077 103.556 210.083 103.545C210.643 102.576 211.043 101.533 211.441 99.728C211.626 99.728 211.81 99.728 212 99.728C212 102.787 212 105.846 212 108.998C202.017 108.998 192.034 108.998 181.748 108.998C181.748 108.802 181.748 108.607 181.748 108.405C183.561 108.405 185.374 108.405 187.242 108.405C187.242 98.8591 187.242 89.3131 187.242 79.4779C185.429 79.4779 183.616 79.4779 181.748 79.4779C181.748 79.2783 181.748 79.0787 181.748 78.873Z" fill="#450000"/>
<path d="M139.361 79.0479C144.423 79.0479 149.484 79.0479 154.699 79.0479C154.699 79.2474 154.699 79.447 154.699 79.6527C152.886 79.6527 151.073 79.6527 149.205 79.6527C149.285 79.8331 149.366 80.0135 149.45 80.1994C149.492 80.2927 149.533 80.386 149.575 80.4794C149.674 80.7002 149.773 80.9209 149.873 81.1415C149.966 81.3481 150.059 81.5548 150.151 81.7616C150.157 81.7748 150.163 81.7881 150.169 81.8017C150.217 81.9091 150.265 82.0166 150.313 82.124C150.355 82.2179 150.397 82.3118 150.439 82.4057C150.445 82.4189 150.451 82.4322 150.457 82.4458C150.544 82.6392 150.631 82.8326 150.718 83.0258C150.811 83.2324 150.904 83.439 150.996 83.6459C151.002 83.6591 151.008 83.6724 151.014 83.686C151.062 83.7934 151.11 83.9008 151.158 84.0083C151.2 84.1022 151.242 84.1961 151.284 84.2899C151.29 84.3032 151.296 84.3164 151.302 84.3301C151.389 84.5235 151.476 84.7168 151.563 84.91C151.656 85.1166 151.749 85.3233 151.842 85.5301C151.848 85.5434 151.854 85.5566 151.86 85.5703C151.908 85.6777 151.956 85.7851 152.004 85.8925C152.046 85.9864 152.088 86.0803 152.13 86.1742C152.136 86.1875 152.142 86.2007 152.148 86.2144C152.234 86.4078 152.321 86.6011 152.408 86.7943C152.502 87.0009 152.594 87.2076 152.687 87.4144C152.693 87.4277 152.699 87.4409 152.705 87.4546C152.753 87.562 152.801 87.6694 152.849 87.7768C152.891 87.8707 152.933 87.9646 152.975 88.0585C152.981 88.0718 152.987 88.085 152.993 88.0986C153.079 88.2921 153.166 88.4854 153.254 88.6786C153.347 88.8852 153.44 89.0919 153.532 89.2987C153.541 89.3186 153.541 89.3186 153.55 89.3388C153.598 89.4462 153.646 89.5537 153.694 89.6611C153.736 89.755 153.778 89.8489 153.82 89.9428C153.826 89.956 153.832 89.9693 153.838 89.9829C153.93 90.1888 154.023 90.3946 154.116 90.6003C154.216 90.8233 154.316 91.0466 154.416 91.2699C154.428 91.2966 154.44 91.3233 154.452 91.35C154.458 91.3631 154.464 91.3762 154.47 91.3897C154.528 91.5193 154.586 91.6488 154.644 91.7783C154.708 91.9211 154.772 92.0638 154.836 92.2067C154.842 92.2198 154.848 92.233 154.854 92.2466C154.866 92.2735 154.878 92.3004 154.89 92.3273C154.99 92.5496 155.089 92.7718 155.189 92.9938C155.283 93.2004 155.376 93.4071 155.468 93.6139C155.474 93.6272 155.48 93.6404 155.486 93.6541C155.534 93.7615 155.582 93.8689 155.63 93.9763C155.672 94.0702 155.714 94.1641 155.756 94.258C155.765 94.2779 155.765 94.2779 155.774 94.2981C155.861 94.4916 155.948 94.6849 156.035 94.8781C156.128 95.0847 156.221 95.2914 156.313 95.4982C156.319 95.5114 156.325 95.5247 156.331 95.5383C156.379 95.6457 156.427 95.7532 156.475 95.8606C156.517 95.9545 156.559 96.0484 156.601 96.1423C156.61 96.1622 156.61 96.1622 156.619 96.1824C156.706 96.3759 156.793 96.5692 156.88 96.7624C156.973 96.969 157.066 97.1757 157.159 97.3825C157.165 97.3957 157.17 97.409 157.177 97.4226C157.225 97.53 157.273 97.6374 157.321 97.7449C157.363 97.8388 157.405 97.9327 157.447 98.0266C157.456 98.0464 157.456 98.0464 157.465 98.0667C157.551 98.2601 157.638 98.4534 157.725 98.6467C157.819 98.8532 157.911 99.0599 158.004 99.2668C158.01 99.28 158.016 99.2932 158.022 99.3069C158.07 99.4143 158.118 99.5217 158.166 99.6291C158.208 99.723 158.25 99.8169 158.292 99.9108C158.301 99.9307 158.301 99.9307 158.31 99.951C158.396 100.144 158.483 100.338 158.571 100.531C158.664 100.738 158.757 100.944 158.849 101.151C158.855 101.164 158.861 101.178 158.867 101.191C158.915 101.299 158.963 101.406 159.011 101.513C159.053 101.607 159.095 101.701 159.137 101.795C159.146 101.815 159.146 101.815 159.155 101.835C159.242 102.029 159.329 102.222 159.416 102.415C159.509 102.622 159.602 102.828 159.694 103.035C159.7 103.048 159.706 103.061 159.712 103.075C159.761 103.184 159.809 103.292 159.858 103.401C159.898 103.49 159.937 103.579 159.977 103.667C159.996 103.709 160.014 103.75 160.033 103.792C160.044 103.817 160.055 103.843 160.067 103.868C160.072 103.88 160.077 103.891 160.082 103.903C160.087 103.913 160.092 103.924 160.097 103.935C160.104 103.951 160.104 103.951 160.111 103.966C160.129 104.008 160.149 104.048 160.169 104.089C160.179 104.113 160.179 104.113 160.179 104.148C160.188 104.148 160.197 104.148 160.207 104.148C160.208 104.139 160.209 104.13 160.21 104.12C160.223 104.068 160.243 104.022 160.266 103.973C160.27 103.962 160.275 103.951 160.28 103.941C160.291 103.917 160.301 103.894 160.312 103.871C160.341 103.805 160.37 103.74 160.4 103.674C160.406 103.66 160.412 103.646 160.419 103.632C160.494 103.464 160.568 103.297 160.642 103.129C160.661 103.086 160.68 103.044 160.698 103.001C160.721 102.949 160.744 102.898 160.767 102.846C160.84 102.679 160.914 102.512 160.988 102.344C160.998 102.322 161.008 102.3 161.018 102.278C161.11 102.07 161.201 101.862 161.293 101.655C161.367 101.488 161.441 101.32 161.515 101.153C161.604 100.953 161.693 100.752 161.782 100.552C161.861 100.372 161.94 100.193 162.02 100.013C162.108 99.8128 162.197 99.6122 162.286 99.4116C162.365 99.2323 162.445 99.0529 162.524 98.8735C162.613 98.6729 162.702 98.4723 162.79 98.2718C162.87 98.0924 162.949 97.913 163.029 97.7336C163.117 97.533 163.206 97.3324 163.295 97.1319C163.374 96.9525 163.454 96.7731 163.533 96.5937C163.622 96.3931 163.71 96.1926 163.799 95.992C163.879 95.8127 163.958 95.6333 164.037 95.4539C164.126 95.2533 164.215 95.0527 164.304 94.8522C164.383 94.6728 164.463 94.4934 164.542 94.314C164.631 94.1134 164.719 93.9128 164.808 93.7123C164.888 93.5329 164.967 93.3535 165.046 93.1741C165.135 92.9735 165.224 92.773 165.313 92.5724C165.392 92.393 165.471 92.2136 165.551 92.0342C165.639 91.8337 165.728 91.6331 165.817 91.4325C165.896 91.2532 165.976 91.0738 166.055 90.8944C166.144 90.6938 166.233 90.4932 166.321 90.2927C166.401 90.1133 166.48 89.9339 166.56 89.7545C166.648 89.5539 166.737 89.3533 166.826 89.1528C166.905 88.9734 166.985 88.794 167.064 88.6146C167.153 88.414 167.241 88.2135 167.33 88.0129C167.41 87.8336 167.489 87.6542 167.568 87.4748C167.657 87.2742 167.746 87.0736 167.835 86.8731C167.914 86.6937 167.994 86.5143 168.073 86.3349C168.162 86.1343 168.25 85.9337 168.339 85.7332C168.419 85.5538 168.498 85.3744 168.577 85.195C168.666 84.9944 168.755 84.7939 168.844 84.5933C168.923 84.4139 169.002 84.2345 169.082 84.0551C169.17 83.8546 169.259 83.654 169.348 83.4534C169.427 83.2741 169.507 83.0947 169.586 82.9153C169.675 82.7147 169.764 82.5141 169.852 82.3136C169.932 82.1342 170.011 81.9548 170.091 81.7754C170.179 81.5748 170.268 81.3743 170.357 81.1737C170.431 81.0074 170.504 80.8412 170.578 80.6749C170.757 80.2691 170.757 80.2691 170.845 80.0704C170.855 80.0482 170.865 80.0259 170.875 80.0037C170.888 79.973 170.902 79.9422 170.915 79.9115C170.919 79.9028 170.923 79.8941 170.927 79.8851C170.961 79.8075 170.996 79.7301 171.031 79.6527C169.254 79.6527 167.477 79.6527 165.646 79.6527C165.646 79.4531 165.646 79.2535 165.646 79.0479C169.182 79.0479 172.719 79.0479 176.362 79.0479C176.362 79.2474 176.362 79.447 176.362 79.6527C174.886 79.6527 173.411 79.6527 171.89 79.6527C171.883 79.6872 171.883 79.6872 171.877 79.7225C171.871 79.738 171.865 79.7535 171.858 79.7687C171.854 79.7772 171.851 79.7857 171.847 79.7944C171.842 79.8036 171.838 79.8127 171.834 79.8221C171.828 79.8368 171.828 79.8368 171.821 79.8519C171.806 79.8846 171.792 79.9173 171.777 79.95C171.766 79.9734 171.756 79.9969 171.745 80.0203C171.723 80.0701 171.701 80.1198 171.679 80.1696C171.629 80.2811 171.58 80.3928 171.53 80.5045C171.508 80.5561 171.485 80.6076 171.462 80.6591C171.373 80.8601 171.284 81.0612 171.195 81.2622C171.07 81.5458 170.945 81.8293 170.819 82.1128C170.786 82.1892 170.752 82.2656 170.718 82.3421C170.712 82.3548 170.707 82.3675 170.701 82.3806C170.684 82.4193 170.667 82.4579 170.65 82.4965C170.524 82.7798 170.524 82.7798 170.463 82.918C170.337 83.204 170.21 83.49 170.084 83.776C169.985 83.9989 169.887 84.2219 169.788 84.4448C169.783 84.4574 169.777 84.47 169.771 84.4829C169.727 84.5835 169.682 84.6842 169.638 84.7848C169.599 84.8731 169.56 84.9613 169.521 85.0496C169.515 85.0622 169.509 85.0748 169.504 85.0877C169.411 85.2979 169.318 85.5082 169.225 85.7184C169.093 86.017 168.961 86.3155 168.829 86.6141C168.795 86.6905 168.761 86.767 168.727 86.8434C168.722 86.8561 168.716 86.8689 168.71 86.882C168.693 86.9206 168.676 86.9592 168.659 86.9979C168.534 87.2811 168.534 87.2811 168.473 87.4193C168.346 87.7053 168.22 87.9913 168.093 88.2773C167.995 88.5003 167.896 88.7232 167.798 88.9461C167.792 88.9587 167.787 88.9713 167.781 88.9842C167.736 89.0849 167.692 89.1855 167.647 89.2861C167.608 89.3744 167.569 89.4627 167.53 89.5509C167.525 89.5635 167.519 89.5761 167.513 89.589C167.42 89.7993 167.327 90.0095 167.234 90.2198C167.136 90.4427 167.037 90.6656 166.939 90.8886C166.933 90.9011 166.928 90.9137 166.922 90.9267C166.877 91.0273 166.833 91.1279 166.788 91.2285C166.749 91.3168 166.71 91.4051 166.671 91.4934C166.666 91.506 166.66 91.5185 166.654 91.5315C166.561 91.7417 166.468 91.9519 166.376 92.1622C166.244 92.4608 166.112 92.7593 165.98 93.0578C165.946 93.1343 165.912 93.2107 165.878 93.2872C165.87 93.3063 165.87 93.3063 165.861 93.3257C165.844 93.3644 165.827 93.403 165.81 93.4416C165.684 93.7249 165.684 93.7249 165.623 93.8631C165.497 94.149 165.37 94.4351 165.244 94.7211C165.145 94.944 165.047 95.167 164.948 95.3899C164.943 95.4025 164.937 95.415 164.931 95.428C164.887 95.5286 164.842 95.6292 164.798 95.7299C164.759 95.8181 164.72 95.9064 164.681 95.9947C164.675 96.0073 164.67 96.0199 164.664 96.0328C164.571 96.243 164.478 96.4533 164.385 96.6635C164.253 96.9621 164.121 97.2606 163.989 97.5592C163.955 97.6356 163.921 97.712 163.888 97.7885C163.879 97.8076 163.879 97.8076 163.871 97.8271C163.853 97.8657 163.836 97.9043 163.819 97.943C163.694 98.2262 163.694 98.2262 163.633 98.3644C163.506 98.6504 163.38 98.9364 163.254 99.2224C163.155 99.4454 163.056 99.6683 162.958 99.8912C162.952 99.9038 162.947 99.9164 162.941 99.9293C162.896 100.03 162.852 100.131 162.807 100.231C162.768 100.319 162.729 100.408 162.69 100.496C162.685 100.509 162.679 100.521 162.673 100.534C162.58 100.744 162.488 100.955 162.395 101.165C162.296 101.388 162.198 101.611 162.099 101.834C162.093 101.846 162.088 101.859 162.082 101.872C162.038 101.972 161.993 102.073 161.949 102.174C161.91 102.262 161.87 102.35 161.831 102.438C161.826 102.451 161.82 102.464 161.815 102.477C161.722 102.687 161.629 102.897 161.536 103.107C161.404 103.406 161.272 103.704 161.14 104.003C161.106 104.079 161.072 104.156 161.038 104.232C161.033 104.245 161.027 104.258 161.021 104.271C161.004 104.309 160.987 104.348 160.97 104.387C160.845 104.67 160.845 104.67 160.784 104.808C160.657 105.094 160.531 105.38 160.404 105.666C160.306 105.889 160.207 106.112 160.109 106.335C160.103 106.348 160.097 106.36 160.092 106.373C160.047 106.474 160.003 106.574 159.958 106.675C159.919 106.763 159.88 106.852 159.841 106.94C159.835 106.952 159.83 106.965 159.824 106.978C159.731 107.188 159.638 107.398 159.545 107.609C159.413 107.907 159.281 108.206 159.149 108.504C159.098 108.619 159.047 108.734 158.997 108.85C158.969 108.913 158.94 108.976 158.912 109.04C158.901 109.065 158.89 109.091 158.878 109.117C158.725 109.465 158.725 109.465 158.571 109.813C158.152 109.813 157.734 109.813 157.303 109.813C157.163 109.501 157.023 109.189 156.884 108.876C156.796 108.679 156.708 108.482 156.619 108.284C156.535 108.095 156.45 107.906 156.366 107.717C156.288 107.541 156.209 107.366 156.13 107.19C156.04 106.99 155.951 106.789 155.862 106.589C155.783 106.413 155.705 106.237 155.626 106.062C155.536 105.861 155.446 105.661 155.357 105.461C155.279 105.285 155.2 105.109 155.121 104.933C155.031 104.733 154.942 104.533 154.853 104.333C154.775 104.157 154.696 103.981 154.617 103.805C154.527 103.605 154.438 103.405 154.348 103.204C154.27 103.028 154.191 102.853 154.112 102.677C154.023 102.477 153.933 102.276 153.844 102.076C153.766 101.9 153.687 101.724 153.608 101.549C153.518 101.349 153.429 101.148 153.339 100.948C153.261 100.772 153.183 100.596 153.104 100.42C153.014 100.22 152.924 100.02 152.835 99.8196C152.757 99.6437 152.678 99.4679 152.599 99.2922C152.509 99.0921 152.42 98.8918 152.331 98.6914C152.252 98.5154 152.174 98.3396 152.095 98.164C152.005 97.9638 151.915 97.7635 151.826 97.5631C151.748 97.3872 151.669 97.2114 151.59 97.0357C151.5 96.8356 151.411 96.6353 151.322 96.4349C151.244 96.259 151.165 96.0832 151.086 95.9075C150.996 95.7073 150.907 95.507 150.817 95.3066C150.739 95.1307 150.66 94.9549 150.581 94.7792C150.497 94.5913 150.413 94.4033 150.329 94.2151C150.246 94.0282 150.163 93.8413 150.079 93.6546C149.99 93.4565 149.901 93.2582 149.812 93.06C149.806 93.0466 149.8 93.0331 149.794 93.0193C149.702 92.8147 149.611 92.6099 149.52 92.4051C149.437 92.2197 149.354 92.0344 149.271 91.8492C149.186 91.6603 149.102 91.4713 149.018 91.2822C148.939 91.1063 148.861 90.9305 148.782 90.7548C148.692 90.5547 148.602 90.3544 148.513 90.154C148.435 89.978 148.356 89.8022 148.277 89.6266C148.187 89.4264 148.098 89.2261 148.009 89.0257C147.931 88.8498 147.852 88.674 147.773 88.4983C147.683 88.2982 147.594 88.0979 147.504 87.8975C147.426 87.7216 147.348 87.5458 147.269 87.3701C147.179 87.1699 147.089 86.9696 147 86.7692C146.922 86.5933 146.843 86.4175 146.764 86.2418C146.674 86.0417 146.585 85.8414 146.496 85.641C146.417 85.4651 146.339 85.2893 146.26 85.1136C146.17 84.9135 146.08 84.7132 145.991 84.5128C145.913 84.3368 145.834 84.161 145.755 83.9854C145.665 83.7852 145.576 83.5849 145.487 83.3845C145.408 83.2086 145.33 83.0328 145.251 82.8571C145.161 82.657 145.071 82.4567 144.982 82.2563C144.904 82.0804 144.825 81.9046 144.746 81.7289C144.656 81.5287 144.567 81.3284 144.478 81.128C144.395 80.941 144.311 80.7541 144.227 80.5673C144.132 80.355 144.037 80.1424 143.942 79.9298C143.937 79.9179 143.932 79.906 143.926 79.8937C143.916 79.8715 143.906 79.8493 143.897 79.827C143.892 79.8171 143.888 79.8072 143.883 79.797C143.879 79.788 143.875 79.7789 143.871 79.7696C143.862 79.7502 143.853 79.7309 143.843 79.7117C143.833 79.6876 143.833 79.6876 143.833 79.6527C142.357 79.6527 140.882 79.6527 139.361 79.6527C139.361 79.4531 139.361 79.2535 139.361 79.0479Z" fill="#450000"/>
<path d="M59.2529 79.1074C64.5257 79.1074 69.7985 79.1074 75.2311 79.1074C75.2311 79.307 75.2311 79.5066 75.2311 79.7123C73.4135 79.7123 71.5959 79.7123 69.7232 79.7123C69.7239 81.2503 69.7239 81.2503 69.7246 82.7884C69.7246 82.8273 69.7246 82.8662 69.7246 82.905C69.7251 83.8138 69.7255 84.7225 69.726 85.6312C69.726 85.6607 69.726 85.6902 69.726 85.7198C69.7264 86.3396 69.7267 86.9594 69.727 87.5793C69.7272 87.8907 69.7274 88.2021 69.7275 88.5135C69.7276 88.5448 69.7276 88.5761 69.7276 88.6074C69.728 89.3456 69.7284 90.0838 69.7287 90.822C69.7287 90.8297 69.7287 90.8375 69.7287 90.8455C69.7288 91.1034 69.7289 91.3613 69.729 91.6193C69.7293 92.3403 69.7296 93.0614 69.73 93.7825C69.73 93.7974 69.73 93.8122 69.73 93.8275C69.7302 94.1538 69.7304 94.4801 69.7306 94.8064C69.7307 94.9377 69.7308 95.069 69.7308 95.2004C69.7309 95.2147 69.7309 95.2291 69.7309 95.2439C69.7311 95.7055 69.7313 96.1671 69.7315 96.6287C69.7316 97.0945 69.7319 97.5602 69.7322 98.0259C69.7322 98.0906 69.7323 98.1552 69.7323 98.2198C69.7323 98.2325 69.7324 98.2452 69.7324 98.2582C69.7325 98.4573 69.7326 98.6564 69.7326 98.8554C69.7326 99.0521 69.7327 99.2488 69.7329 99.4454C69.733 99.5503 69.7331 99.6551 69.733 99.7599C69.7328 100.154 69.7353 100.547 69.7496 100.941C69.7499 100.948 69.7501 100.956 69.7504 100.964C69.7614 101.267 69.779 101.568 69.805 101.87C69.8065 101.887 69.8065 101.887 69.808 101.904C69.8705 102.619 69.9815 103.332 70.1595 104.033C70.1627 104.046 70.1627 104.046 70.1659 104.059C70.4183 105.055 70.8378 106.05 72.0596 107.455C72.093 107.486 72.1258 107.517 72.1585 107.548C72.2412 107.627 72.3277 107.701 72.4216 107.769C72.4526 107.792 72.4827 107.816 72.5129 107.84C72.59 107.899 72.6711 107.953 72.7532 108.007C72.7756 108.022 72.7979 108.037 72.8201 108.052C73.8293 108.73 75.1023 109.048 77.9028 109.259C77.9397 109.259 77.9765 109.259 78.0133 109.259C78.3566 109.258 78.6994 109.257 79.042 109.235C79.0782 109.232 79.1144 109.23 79.1506 109.228C80.3054 109.157 81.4565 108.985 84.0654 108C84.0777 107.993 84.0901 107.987 84.1028 107.98C84.253 107.902 84.3969 107.818 84.5384 107.729C84.571 107.708 84.6038 107.688 84.6365 107.668C84.75 107.597 84.8607 107.526 84.9666 107.447C85.0035 107.42 85.0412 107.394 85.0794 107.368C85.1512 107.318 85.2187 107.265 85.2859 107.21C85.327 107.177 85.3684 107.145 85.4115 107.113C85.4795 107.063 85.543 107.008 85.6066 106.954C85.6272 106.936 85.6479 106.919 85.6686 106.901C85.7341 106.845 85.7981 106.789 85.8583 106.729C85.8885 106.699 85.9202 106.67 85.9519 106.641C86.0094 106.588 86.0641 106.533 86.1173 106.477C86.1428 106.45 86.1685 106.423 86.1946 106.397C86.3136 106.276 86.4246 106.15 86.533 106.022C86.548 106.005 86.5631 105.987 86.5782 105.969C86.6077 105.934 86.6372 105.899 86.6666 105.865C86.695 105.831 86.7237 105.797 86.7526 105.764C87.0278 105.445 87.2716 105.105 87.4873 104.755C87.494 104.744 87.5007 104.733 87.5076 104.722C88.1101 103.74 88.3417 102.62 88.5442 99.9087C88.5446 99.8831 88.5451 99.8574 88.5455 99.8317C88.5517 99.4516 88.5528 99.0715 88.5529 98.6914C88.5529 98.591 88.553 98.4906 88.553 98.3901C88.5532 98.2027 88.5533 98.0152 88.5534 97.8277C88.5535 97.6384 88.5536 97.449 88.5537 97.2597C88.5537 97.2476 88.5537 97.2355 88.5537 97.2231C88.5538 97.1616 88.5538 97.1 88.5539 97.0385C88.5542 96.5958 88.5545 96.153 88.5547 95.7103C88.5549 95.2725 88.5552 94.8347 88.5554 94.3968C88.5555 94.3764 88.5555 94.3764 88.5555 94.3555C88.5556 94.2308 88.5556 94.1061 88.5557 93.9815C88.5559 93.6717 88.5561 93.3619 88.5563 93.0522C88.5563 93.0381 88.5563 93.024 88.5564 93.0095C88.5568 92.3253 88.5572 91.6411 88.5576 90.9569C88.5577 90.7198 88.5578 90.4827 88.558 90.2456C88.558 90.2235 88.558 90.2235 88.558 90.201C88.5584 89.5159 88.5588 88.8309 88.5592 88.1459C88.5593 88.1013 88.5593 88.0568 88.5593 88.0123C88.5595 87.7172 88.5597 87.422 88.5599 87.1269C88.5603 86.5398 88.5606 85.9527 88.561 85.3656C88.561 85.3377 88.561 85.3097 88.5611 85.2818C88.5616 84.4215 88.5621 83.5613 88.5626 82.7011C88.5626 82.6664 88.5627 82.6318 88.5627 82.5971C88.5632 81.6355 88.5638 80.6739 88.5643 79.7123C86.7468 79.7123 84.9292 79.7123 83.0565 79.7123C83.0565 79.5127 83.0565 79.3131 83.0565 79.1074C86.9391 79.1074 90.8217 79.1074 94.822 79.1074C94.822 79.307 94.822 79.5066 94.822 79.7123C93.0044 79.7123 91.1868 79.7123 89.3142 79.7123C89.3143 80.3445 89.3145 80.9768 89.3146 81.6283C89.3148 82.446 89.3148 82.446 89.3149 82.8176C89.3149 82.8568 89.3149 82.8961 89.3149 82.9353C89.3151 83.8522 89.3152 84.7692 89.3153 85.6861C89.3153 85.7159 89.3153 85.7457 89.3153 85.7755C89.3154 86.3929 89.3155 87.0104 89.3156 87.6278C89.3156 87.6512 89.3156 87.6746 89.3156 87.698C89.3156 87.7096 89.3156 87.7096 89.3156 87.7214C89.3156 88.0121 89.3156 88.3028 89.3157 88.5935C89.3157 88.6251 89.3157 88.6566 89.3157 88.6882C89.3158 89.4331 89.3159 90.178 89.316 90.9229C89.316 90.9347 89.316 90.9347 89.3161 90.9467C89.3161 91.2071 89.3162 91.4675 89.3162 91.7279C89.3163 91.9632 89.3164 92.1985 89.3164 92.4338C89.3164 92.4415 89.3164 92.4493 89.3164 92.4572C89.3165 92.9419 89.3166 93.4265 89.3167 93.9112C89.3167 93.9262 89.3167 93.9412 89.3167 93.9566C89.3167 94.2856 89.3167 94.6146 89.3167 94.9437C89.3167 95.0761 89.3168 95.2085 89.3168 95.3409C89.3168 95.3554 89.3168 95.3699 89.3168 95.3848C89.3168 95.8508 89.3169 96.3168 89.3171 96.7828C89.3172 97.2526 89.3173 97.7225 89.3173 98.1924C89.3173 98.2575 89.3173 98.3226 89.3173 98.3877C89.3173 98.4069 89.3173 98.4069 89.3173 98.4264C89.3172 98.6275 89.3173 98.8286 89.3174 99.0297C89.3176 99.228 89.3176 99.4263 89.3175 99.6247C89.3175 99.7305 89.3175 99.8364 89.3176 99.9422C89.3182 100.475 89.3185 101.008 89.2622 101.539C89.2611 101.55 89.2599 101.562 89.2587 101.573C89.1636 102.504 88.9423 103.423 87.8963 105.394C87.8845 105.412 87.8726 105.429 87.8607 105.447C87.4534 106.047 86.9669 106.623 86.4081 107.128C86.3823 107.151 86.3567 107.175 86.3312 107.198C86.2367 107.286 86.1407 107.369 86.0367 107.448C86.0034 107.473 85.971 107.5 85.9383 107.526C85.8604 107.589 85.7815 107.649 85.6976 107.707C85.6639 107.73 85.6309 107.754 85.5981 107.778C85.5 107.85 85.398 107.916 85.2937 107.982C85.2655 107.999 85.2373 108.017 85.2091 108.035C84.9395 108.205 84.6562 108.358 84.3653 108.5C84.3552 108.505 84.345 108.51 84.3345 108.515C84.2635 108.55 84.1919 108.583 84.1199 108.616C84.1068 108.622 84.0938 108.628 84.0803 108.634C83.5856 108.86 83.0693 109.043 82.5385 109.198C82.5299 109.2 82.5214 109.203 82.5126 109.205C81.3371 109.548 80.1025 109.73 78.2985 109.849C78.2847 109.85 78.2709 109.85 78.2567 109.851C77.4255 109.894 76.5802 109.893 75.7491 109.849C75.7349 109.848 75.7207 109.848 75.706 109.847C74.4069 109.779 73.1066 109.617 70.9366 109C70.9207 108.994 70.9048 108.989 70.8884 108.983C70.6564 108.901 70.4299 108.811 70.2049 108.717C70.1632 108.699 70.1213 108.682 70.0795 108.665C69.8915 108.586 69.7116 108.498 69.5324 108.407C69.5189 108.4 69.5055 108.393 69.4916 108.386C69.3097 108.294 69.1326 108.197 68.9598 108.093C68.9495 108.087 68.9393 108.08 68.9288 108.074C68.723 107.95 68.5227 107.82 68.3316 107.68C68.2951 107.653 68.2578 107.628 68.2202 107.602C68.032 107.47 67.8622 107.32 67.6902 107.174C67.6762 107.162 67.6762 107.162 67.662 107.15C67.4734 106.989 67.4734 106.989 67.392 106.906C67.379 106.894 67.3661 106.881 67.3531 106.868C67.036 106.555 66.746 106.224 66.4922 105.871C66.4868 105.864 66.4814 105.856 66.4759 105.848C66.4397 105.798 66.4045 105.748 66.3695 105.697C66.3637 105.688 66.3578 105.68 66.3518 105.671C65.815 104.894 65.4535 104.045 65.197 103.173C65.1936 103.161 65.1936 103.161 65.1901 103.149C64.9919 102.476 64.8805 101.786 64.8127 101.096C64.8117 101.085 64.8106 101.074 64.8095 101.063C64.8011 100.979 64.7944 100.895 64.788 100.811C64.7863 100.789 64.7863 100.789 64.7845 100.767C64.7544 100.369 64.7569 99.9715 64.7574 99.5734C64.7575 99.4684 64.7575 99.3634 64.7574 99.2584C64.7573 99.0622 64.7574 98.8661 64.7575 98.67C64.7576 98.4716 64.7577 98.2731 64.7577 98.0747C64.7577 98.0621 64.7577 98.0495 64.7577 98.0366C64.7577 97.9724 64.7577 97.9082 64.7576 97.844C64.7576 97.3808 64.7577 96.9175 64.7579 96.4543C64.758 95.9959 64.7581 95.5374 64.7582 95.079C64.7582 95.0576 64.7582 95.0576 64.7582 95.0358C64.7582 94.9055 64.7582 94.7752 64.7582 94.6449C64.7582 94.3212 64.7582 93.9974 64.7583 93.6736C64.7583 93.6515 64.7583 93.6515 64.7583 93.6289C64.7583 92.9127 64.7585 92.1965 64.7587 91.4803C64.7588 91.2319 64.7588 90.9835 64.7589 90.7351C64.7589 90.7274 64.7589 90.7197 64.7589 90.7117C64.7591 89.9793 64.7592 89.247 64.7592 88.5146C64.7593 88.4835 64.7593 88.4525 64.7593 88.4214C64.7593 88.1051 64.7593 87.7887 64.7594 87.4723C64.7594 86.8583 64.7595 86.2443 64.7596 85.6303C64.7596 85.6011 64.7596 85.5719 64.7596 85.5426C64.7597 84.6425 64.7599 83.7423 64.7601 82.8422C64.7601 82.8059 64.7601 82.7696 64.7601 82.7333C64.7603 81.7263 64.7605 80.7193 64.7607 79.7123C62.9432 79.7123 61.1256 79.7123 59.2529 79.7123C59.2529 79.5127 59.2529 79.3131 59.2529 79.1074Z" fill="#450000"/>
</svg>
