<svg width="28" height="52" viewBox="0 0 28 52" fill="none" xmlns="http://www.w3.org/2000/svg">
<path d="M22.2076 14.9737C22.2305 14.9875 22.2305 14.9875 22.2539 15.0015C22.4402 15.1138 22.622 15.2303 22.7985 15.3563C22.8341 15.3815 22.8701 15.406 22.9061 15.4305C23.0172 15.5059 23.1242 15.5859 23.2301 15.6679C23.2393 15.6751 23.2486 15.6822 23.2581 15.6896C23.4478 15.8363 23.6329 15.9871 23.8111 16.1467C23.8284 16.1619 23.8459 16.177 23.8635 16.1918C23.9782 16.2892 24.0856 16.3934 24.1935 16.4977C24.2265 16.5296 24.2596 16.5615 24.2928 16.5933C24.3141 16.6139 24.3354 16.6344 24.3568 16.655C24.3665 16.6644 24.3762 16.6737 24.3863 16.6834C24.4424 16.7378 24.4961 16.7937 24.5481 16.8519C24.5756 16.8827 24.604 16.9126 24.6325 16.9426C24.6886 17.0026 24.7419 17.0643 24.7945 17.1271C24.8243 17.1622 24.8547 17.1967 24.8854 17.2311C24.9727 17.329 25.0534 17.4308 25.1328 17.5348C25.1541 17.5624 25.1756 17.5898 25.1973 17.6172C25.3022 17.7499 25.4006 17.886 25.4963 18.025C25.5199 18.0592 25.5436 18.0934 25.5673 18.1276C25.8129 18.4824 26.03 18.8532 26.2309 19.2331C26.2522 19.2734 26.2738 19.3136 26.2954 19.3538C26.8157 20.3297 27.1651 21.4063 27.6514 24.373C27.6522 24.3843 27.6529 24.3957 27.6537 24.4073C27.7459 25.8458 27.6249 27.2903 27.061 30.0237C27.0576 30.0371 27.0543 30.0504 27.0508 30.0641C26.855 30.843 26.6144 31.611 26.3777 32.379C26.3106 32.5967 26.2439 32.8145 26.1776 33.0325C26.1719 33.0513 26.1661 33.0702 26.1604 33.089C26.0706 33.3842 25.9841 33.6801 25.9022 33.9774C25.8479 34.1732 25.7896 34.3676 25.6883 34.5464C25.6828 34.5561 25.6774 34.5659 25.6718 34.5759C25.5884 34.7213 25.4795 34.8459 25.3616 34.9664C25.3475 34.9812 25.3475 34.9812 25.3332 34.9964C25.1072 35.2269 24.8095 35.3925 24.5227 35.5425C24.4508 35.5803 24.3792 35.6185 24.3075 35.6566C24.2804 35.671 24.2533 35.6854 24.2262 35.6998C23.9649 35.8388 23.7047 35.9793 23.4473 36.1249C23.388 36.1584 23.3286 36.1916 23.269 36.2245C23.0538 36.3433 22.8412 36.4657 22.6297 36.5904C22.5849 36.6168 22.54 36.6431 22.4951 36.6693C22.2034 36.8398 21.9147 37.0147 21.6272 37.1916C21.5886 37.2154 21.5499 37.239 21.5112 37.2626C21.3254 37.3761 21.141 37.4914 20.9572 37.6078C20.9128 37.636 20.8683 37.6641 20.8238 37.6922C20.3893 37.9667 20.3893 37.9667 19.9616 38.2508C19.9084 38.2867 19.8543 38.3211 19.8001 38.3556C19.4366 38.5887 19.0809 38.834 18.7244 39.077C18.6843 39.1043 18.6443 39.1315 18.6042 39.1587C18.4871 39.2381 18.3706 39.3183 18.2546 39.3992C18.1898 39.4444 18.1249 39.4894 18.0599 39.5341C17.9506 39.6092 17.8418 39.685 17.7331 39.7609C17.7005 39.7835 17.6679 39.8062 17.6353 39.8288C17.5127 39.9139 17.3908 39.9997 17.2694 40.0862C17.1915 40.1416 17.1132 40.1964 17.0346 40.2509C16.944 40.3137 16.8543 40.3776 16.7652 40.4423C16.6915 40.4958 16.6174 40.5487 16.5432 40.6014C16.5317 40.6095 16.5203 40.6176 16.5085 40.626C16.4619 40.6591 16.4152 40.6922 16.3686 40.7252C16.2408 40.8158 16.1133 40.9065 15.9867 40.9984C15.9139 41.0512 15.8406 41.1032 15.7673 41.1551C15.656 41.2338 15.546 41.3142 15.4364 41.3951C15.3538 41.4559 15.2706 41.5158 15.1867 41.575C15.0618 41.6632 14.9386 41.7535 14.8156 41.8442C14.7634 41.8827 14.711 41.9208 14.6583 41.9586C14.5427 42.0419 14.4291 42.128 14.3154 42.2137C14.3059 42.2208 14.2964 42.228 14.2866 42.2353C14.1896 42.3083 14.0933 42.382 13.9982 42.4574C13.9457 42.499 13.8929 42.5403 13.8401 42.5816C13.8106 42.6047 13.7811 42.6278 13.7517 42.6509C13.7283 42.6692 13.7049 42.6875 13.6815 42.7058C13.5877 42.7795 13.4953 42.8545 13.4031 42.9301C13.3797 42.9492 13.3563 42.9683 13.3329 42.9873C13.2353 43.0667 13.1382 43.1465 13.0414 43.2267C13.0074 43.2549 12.9732 43.283 12.9389 43.3111C12.8423 43.3903 12.7476 43.471 12.6545 43.5541C12.6133 43.5905 12.5715 43.626 12.5293 43.6613C12.4837 43.6998 12.4387 43.739 12.3936 43.7782C12.358 43.8092 12.3223 43.8401 12.2865 43.8711C12.2038 43.9428 12.1218 44.0154 12.0399 44.088C12.0326 44.0945 12.0252 44.101 12.0177 44.1077C11.7663 44.3284 11.7663 44.3284 11.5241 44.5583C11.497 44.5837 11.4692 44.6074 11.4405 44.6311C11.377 44.6847 11.3171 44.7412 11.2575 44.7988C11.2462 44.8097 11.2348 44.8207 11.2231 44.8319C11.1858 44.8678 11.1486 44.9037 11.1114 44.9396C11.0853 44.9648 11.0592 44.9899 11.0332 45.015C10.9787 45.0675 10.9242 45.1201 10.8697 45.1726C10.807 45.2332 10.7443 45.2936 10.6815 45.3541C10.6207 45.4126 10.56 45.4711 10.4994 45.5296C10.4737 45.5544 10.448 45.5791 10.4223 45.6039C10.3863 45.6385 10.3504 45.6732 10.3145 45.7079C10.304 45.718 10.2935 45.7281 10.2827 45.7385C10.2255 45.7938 10.1708 45.8504 10.1182 45.9098C10.0815 45.9501 10.0418 45.9873 10.002 46.0248C9.94237 46.0816 9.88506 46.1391 9.83074 46.2008C9.79703 46.2377 9.76061 46.2718 9.72391 46.3059C9.69654 46.3331 9.67077 46.3608 9.64504 46.3893C9.59328 46.4468 9.53962 46.5023 9.48538 46.5576C9.41514 46.6295 9.34555 46.7018 9.27734 46.7755C9.24022 46.8154 9.20259 46.8548 9.16494 46.8943C9.11336 46.9483 9.06253 47.0029 9.01265 47.0585C8.98114 47.093 8.94881 47.1268 8.91651 47.1607C8.86941 47.2104 8.82426 47.2608 8.78059 47.3134C8.72193 47.3835 8.65908 47.449 8.59505 47.5145C8.53622 47.5751 8.4814 47.6379 8.42758 47.7027C8.39437 47.7416 8.35964 47.7787 8.32424 47.8158C8.2664 47.8764 8.21199 47.9389 8.15834 48.003C8.11614 48.0525 8.07267 48.1008 8.029 48.149C7.96426 48.2206 7.90102 48.293 7.83902 48.3669C7.79982 48.4128 7.75967 48.458 7.71936 48.503C7.64592 48.5852 7.57422 48.6687 7.50333 48.7529C7.48174 48.7784 7.46014 48.8039 7.43853 48.8293C7.42238 48.8483 7.42238 48.8483 7.4059 48.8678C7.38505 48.8923 7.3642 48.9169 7.34334 48.9414C7.26391 49.0349 7.18482 49.1286 7.10582 49.2224C7.07354 49.2608 7.04121 49.2991 7.00884 49.3373C6.91488 49.4484 6.82208 49.5602 6.73057 49.6732C6.69781 49.7136 6.66491 49.7539 6.63203 49.7942C6.59203 49.8433 6.55206 49.8923 6.5122 49.9415C6.47307 49.9897 6.43379 50.0378 6.3944 50.0858C6.37747 50.1065 6.37747 50.1065 6.36019 50.1275C6.29917 50.2009 6.23544 50.2685 6.16566 50.3342C6.12852 50.3699 6.09432 50.4074 6.06023 50.4457C6.03184 50.4773 6.0025 50.508 5.97314 50.5387C5.90074 50.6162 5.83463 50.6977 5.76857 50.7802C5.74509 50.8093 5.72131 50.8381 5.69748 50.867C5.54295 51.0548 5.40419 51.2505 5.27859 51.4574C5.27136 51.4675 5.26411 51.4776 5.25665 51.488C5.24715 51.488 5.23764 51.488 5.22785 51.488C5.27451 51.2274 5.3261 50.9683 5.38357 50.7097C5.38951 50.6829 5.38951 50.6829 5.39557 50.6556C5.65795 49.4739 5.98158 48.3068 6.5276 46.6873C6.5387 46.6557 6.54975 46.6241 6.56078 46.5925C6.67687 46.2599 6.79868 45.9296 6.92726 45.6013C6.9319 45.5895 6.93653 45.5777 6.94131 45.5655C7.15669 45.0162 7.38604 44.4721 7.63295 43.9353C7.63757 43.9252 7.64219 43.9152 7.64694 43.9048C7.81369 43.5419 7.987 43.1822 8.16582 42.8246C8.17144 42.8133 8.17707 42.8021 8.18286 42.7905C8.31714 42.5221 8.45354 42.2547 8.59157 41.9881C8.59738 41.9768 8.6032 41.9656 8.60919 41.954C8.67763 41.8217 8.74749 41.6902 8.81918 41.5596C8.85651 41.4915 8.89346 41.4233 8.9299 41.3548C8.93443 41.3463 8.93896 41.3378 8.94363 41.329C8.95274 41.3119 8.96184 41.2948 8.97094 41.2776C9.0477 41.1334 9.12559 40.99 9.20682 40.848C9.26808 40.7407 9.32732 40.6324 9.3865 40.524C9.47288 40.3659 9.56046 40.2087 9.65263 40.0536C9.71349 39.9509 9.7716 39.8468 9.82922 39.7424C9.91719 39.583 10.0082 39.4256 10.1009 39.2687C10.1339 39.2126 10.1665 39.1562 10.199 39.0999C10.2813 38.9574 10.3654 38.8161 10.4511 38.6756C10.5143 38.5715 10.5753 38.4665 10.6357 38.3609C10.7281 38.1996 10.8235 38.0401 10.9204 37.8813C10.9625 37.8122 11.0043 37.7429 11.0462 37.6737C11.063 37.6458 11.0799 37.618 11.0968 37.5901C11.1298 37.5355 11.1628 37.4809 11.1959 37.4262C11.2467 37.3421 11.2977 37.258 11.3486 37.1739C11.3534 37.166 11.3581 37.1582 11.363 37.1501C11.4829 36.9522 11.6033 36.7546 11.7259 36.5582C11.7934 36.4501 11.8603 36.3417 11.927 36.2331C12.0287 36.0675 12.1315 35.9026 12.2354 35.7382C12.3141 35.6137 12.3914 35.4884 12.4684 35.3629C12.5506 35.229 12.6336 35.0956 12.719 34.9635C12.783 34.8646 12.8459 34.765 12.9085 34.6653C12.9985 34.522 13.0892 34.3792 13.1804 34.2367C13.2426 34.1394 13.3043 34.0419 13.3658 33.9442C13.4431 33.8214 13.5217 33.6995 13.6009 33.5779C13.6632 33.4821 13.7244 33.3857 13.7852 33.289C13.852 33.1829 13.9198 33.0775 13.9889 32.9727C14.0497 32.8802 14.1093 32.7871 14.1687 32.6938C14.2702 32.5343 14.3728 32.3755 14.4758 32.2169C14.5208 32.1477 14.5657 32.0784 14.6106 32.0091C14.6286 31.9814 14.6466 31.9536 14.6646 31.9258C14.6735 31.9121 14.6824 31.8983 14.6916 31.8842C15.6367 30.4264 15.6367 30.4264 15.6637 30.3847C15.6818 30.3569 15.6998 30.3291 15.7178 30.3014C15.7626 30.2323 15.8074 30.1632 15.8523 30.0941C15.9746 29.9059 16.0957 29.717 16.2163 29.5277C16.2449 29.4828 16.2736 29.4378 16.3024 29.3929C16.3603 29.3024 16.418 29.2119 16.4757 29.1213C16.4806 29.1134 16.4856 29.1056 16.4908 29.0975C16.6345 28.8716 16.7752 28.6443 16.9113 28.4141C16.9354 28.3734 16.9597 28.3328 16.984 28.2922C17.1004 28.0967 17.2088 27.8975 17.3149 27.6966C17.3371 27.6546 17.3596 27.6127 17.3821 27.5708C17.9277 26.5472 18.3913 25.1977 18.185 23.7396C18.116 23.5375 18.0027 23.3719 17.8052 23.2689C17.6413 23.1988 17.4703 23.1644 17.2966 23.2207C17.0614 23.3204 16.924 23.5102 16.7723 23.7013C16.6699 23.8302 16.5652 23.9568 16.4558 24.0802C16.4206 24.12 16.3864 24.1605 16.3523 24.2012C16.2965 24.2674 16.2378 24.3305 16.1779 24.3933C16.1501 24.4226 16.1228 24.4523 16.0958 24.4824C15.9456 24.6482 15.7857 24.8043 15.6241 24.9598C15.5862 24.9963 15.5483 25.0328 15.5105 25.0694C15.486 25.0929 15.4616 25.1165 15.4371 25.14C15.4204 25.1562 15.4204 25.1562 15.4034 25.1727C15.3358 25.2375 15.2662 25.2989 15.1939 25.3588C15.1707 25.379 15.1476 25.3992 15.1246 25.4195C15.0623 25.4737 14.9982 25.5251 14.933 25.5759C14.8976 25.6039 14.8629 25.6324 14.8283 25.6613C14.7079 25.7614 14.5807 25.8525 14.4528 25.9435C14.4184 25.9681 14.3842 25.993 14.35 26.0179C13.965 26.2977 13.5501 26.5388 13.125 26.7575C13.0957 26.7726 13.0667 26.788 13.0377 26.8036C12.0172 27.3451 10.852 27.645 8.8139 27.8995C8.7956 27.901 8.7773 27.9024 8.75845 27.9039C8.14631 27.9504 7.51964 27.9521 6.9092 27.8853C6.4606 27.8364 6.00617 27.8069 5.55909 27.8856C5.54609 27.8878 5.5331 27.89 5.51971 27.8922C4.70601 28.0308 3.97542 28.4581 3.37531 28.9937C3.34578 29.02 3.31584 29.0456 3.28541 29.071C3.23341 29.1145 3.18288 29.1595 3.13239 29.2046C3.07326 29.2575 3.0137 29.3096 2.95271 29.3605C2.91615 29.3914 2.88027 29.4229 2.84435 29.4545C2.7901 29.5022 2.73537 29.5492 2.67992 29.5956C2.64395 29.6262 2.60872 29.6575 2.57342 29.6888C2.52186 29.7342 2.46949 29.7777 2.415 29.8198C2.33223 29.8842 2.25518 29.9537 2.17765 30.0238C2.11021 30.0847 2.04039 30.1427 1.97006 30.2005C1.95275 30.2148 1.93544 30.229 1.91814 30.2433C1.90504 30.2541 1.90504 30.2541 1.89168 30.265C1.8378 30.3095 1.78494 30.3549 1.73272 30.4012C1.68238 30.4458 1.63111 30.4883 1.5779 30.5296C1.51256 30.5804 1.45086 30.6339 1.38946 30.689C1.34321 30.7302 1.29578 30.7693 1.24666 30.8073C1.18639 30.854 1.12934 30.903 1.07293 30.954C1.00437 31.0159 0.933745 31.0739 0.860451 31.1306C0.817112 31.1652 0.775689 31.2016 0.734492 31.2386C0.668422 31.2978 0.600059 31.3532 0.529716 31.4078C0.486202 31.4427 0.444665 31.4791 0.40325 31.5162C0.336384 31.5762 0.267356 31.6326 0.196112 31.6877C0.147252 31.7264 0.100735 31.7673 0.0544005 31.8087C0.0288036 31.8286 0.0288036 31.8286 0 31.8286C0.128713 31.1658 0.393501 30.5336 0.691286 29.9266C0.698415 29.9119 0.705544 29.8972 0.712889 29.8821C0.807167 29.688 0.907375 29.4984 1.01558 29.3112C1.03672 29.2744 1.05748 29.2374 1.07811 29.2003C1.18432 29.0095 1.2975 28.8232 1.41292 28.6376C1.43777 28.5976 1.46251 28.5575 1.48721 28.5175C1.57719 28.3717 1.66991 28.2278 1.76441 28.0848C1.78555 28.0527 1.80655 28.0205 1.82751 27.9883C2.00984 27.7083 2.19933 27.4328 2.388 27.1567C2.40151 27.137 2.40151 27.137 2.41529 27.1168C2.50037 26.9923 2.5855 26.8679 2.67148 26.744C3.10236 26.1224 3.42679 25.4602 3.65806 24.7479C3.66277 24.7334 3.66748 24.719 3.67234 24.7041C3.72519 24.5387 3.76155 24.3699 3.79667 24.2004C3.79971 24.1859 3.79971 24.1859 3.80282 24.1712C3.87416 23.8296 3.90891 23.4845 3.92855 23.1369C3.93399 23.0416 3.94007 22.9463 3.9462 22.851C3.9468 22.8417 3.94741 22.8323 3.94802 22.8227C4.0188 21.7229 4.25163 20.6291 5.68871 17.9032C5.69658 17.8927 5.70444 17.8821 5.71255 17.8713C5.82583 17.7197 5.94377 17.573 6.06861 17.4301C6.09059 17.405 6.11244 17.3797 6.13426 17.3544C6.21574 17.2604 6.30009 17.1694 6.38665 17.0796C6.4029 17.0625 6.41894 17.0452 6.43486 17.0278C6.52807 16.9261 6.62679 16.8302 6.72646 16.7344C6.75539 16.7066 6.78424 16.6787 6.81309 16.6508C6.90153 16.5655 6.99009 16.4817 7.08568 16.4038C7.11126 16.3813 7.13677 16.3587 7.16219 16.3361C7.23256 16.2743 7.3051 16.2159 7.3792 16.1583C7.40526 16.1378 7.43104 16.1171 7.45681 16.0963C7.60121 15.9799 7.74934 15.8694 7.90088 15.7619C7.93219 15.7396 7.96339 15.7172 7.99457 15.6948C8.53923 15.3067 9.12352 14.9739 9.72121 14.6683C9.74758 14.6547 9.77394 14.6411 9.80031 14.6276C9.98264 14.5341 10.1676 14.4467 10.3549 14.3629C10.3718 14.3553 10.3887 14.3477 10.4061 14.3399C11.4378 13.8789 12.5219 13.5664 14.9635 13.266C14.9806 13.265 14.9977 13.264 15.0154 13.2629C16.2819 13.192 17.5823 13.3152 22.2076 14.9737Z" fill="#450000"/>
<path d="M27.3355 5.69827C27.3499 5.70993 27.3644 5.7216 27.3793 5.73362C27.7385 6.03169 27.9517 6.46764 27.994 6.92012C28.0263 7.36712 27.9037 7.84503 27.5954 8.19051C27.56 8.22866 27.5232 8.26543 27.4857 8.30174C27.4664 8.32066 27.4475 8.34008 27.4287 8.35953C27.1279 8.66497 26.6773 8.83938 26.2444 8.8533C25.8966 8.85984 25.5568 8.8143 25.2526 8.63938C25.219 8.62413 25.219 8.62413 25.1849 8.63439C25.1321 8.66273 25.0837 8.69553 25.0348 8.72967C25.0128 8.74483 24.9908 8.76 24.9688 8.77516C24.9576 8.78291 24.9464 8.79065 24.9349 8.79863C24.8935 8.82722 24.8518 8.85547 24.8101 8.8837C24.7158 8.94757 24.6222 9.01226 24.5289 9.07758C24.4396 9.14009 24.3493 9.20089 24.258 9.26064C24.1676 9.3198 24.0787 9.38036 23.9909 9.44312C23.9049 9.50441 23.8173 9.56324 23.7295 9.62212C23.6488 9.67637 23.5689 9.73148 23.4893 9.78727C23.4009 9.84923 23.3115 9.90944 23.2211 9.9686C23.1307 10.0278 23.0417 10.0883 22.954 10.1511C22.868 10.2124 22.7803 10.2712 22.6926 10.3301C22.6119 10.3843 22.5319 10.4394 22.4524 10.4952C22.364 10.5572 22.2746 10.6174 22.1842 10.6766C22.0937 10.7357 22.0048 10.7963 21.917 10.859C21.8311 10.9203 21.7434 10.9792 21.6557 11.0381C21.575 11.0923 21.495 11.1474 21.4155 11.2032C21.3271 11.2652 21.2376 11.3254 21.1472 11.3845C21.0568 11.4437 20.9679 11.5042 20.8801 11.567C20.7942 11.6283 20.7065 11.6871 20.6187 11.746C20.538 11.8003 20.4581 11.8554 20.3785 11.9112C20.2901 11.9731 20.2007 12.0333 20.1103 12.0925C20.0199 12.1517 19.9309 12.2122 19.8432 12.275C19.7574 12.3361 19.6699 12.3949 19.5823 12.4536C19.5204 12.4951 19.4589 12.5371 19.3981 12.58C19.3864 12.5883 19.3746 12.5967 19.3624 12.6052C19.3401 12.6211 19.3177 12.637 19.2955 12.653C19.2854 12.6601 19.2754 12.6672 19.2651 12.6745C19.2564 12.6807 19.2476 12.687 19.2386 12.6934C19.211 12.7096 19.1868 12.7164 19.1553 12.7224C19.2064 12.6634 19.2589 12.608 19.3158 12.5542C19.3397 12.5307 19.3616 12.5067 19.3835 12.4816C19.4739 12.3814 19.5743 12.2899 19.6722 12.1966C19.7876 12.0882 19.7876 12.0882 19.8961 11.9736C19.9875 11.8698 20.0924 11.7767 20.1928 11.681C20.2214 11.6536 20.25 11.6262 20.2786 11.5988C20.2872 11.5906 20.2958 11.5825 20.3047 11.574C20.348 11.5325 20.3895 11.4902 20.4294 11.4456C20.4796 11.3897 20.5328 11.3375 20.5874 11.2856C20.5972 11.2762 20.607 11.2667 20.6172 11.257C20.6588 11.2172 20.7005 11.1774 20.7421 11.1376C20.7728 11.1083 20.8034 11.079 20.834 11.0496C20.8432 11.0408 20.8525 11.032 20.862 11.023C20.9068 10.9801 20.9498 10.9365 20.9911 10.8904C21.0432 10.8323 21.0987 10.7782 21.1553 10.7243C21.1658 10.7142 21.1763 10.7042 21.1871 10.6938C21.2314 10.6513 21.2759 10.6089 21.3203 10.5664C21.3529 10.5352 21.3856 10.5039 21.4182 10.4727C21.433 10.4586 21.433 10.4586 21.4481 10.4442C21.4942 10.4 21.5387 10.3552 21.5812 10.3077C21.6372 10.2452 21.6975 10.1872 21.7584 10.1291C21.776 10.1122 21.776 10.1122 21.7941 10.0949C21.8439 10.0471 21.8938 9.99934 21.9438 9.95159C21.9804 9.91651 22.017 9.88139 22.0536 9.84627C22.0648 9.83565 22.0759 9.82504 22.0874 9.8141C22.1361 9.76737 22.1835 9.72041 22.2283 9.67012C22.2867 9.60479 22.3499 9.54439 22.4134 9.48371C22.4354 9.46271 22.4573 9.44167 22.4792 9.42062C22.5336 9.36838 22.5881 9.31621 22.6425 9.26405C22.6887 9.21979 22.7349 9.17551 22.781 9.13119C22.8024 9.11065 22.8239 9.09015 22.8453 9.06966C22.8585 9.05696 22.8717 9.04427 22.8854 9.03119C22.8969 9.02018 22.9084 9.00917 22.9202 8.99783C22.9493 8.96857 22.9767 8.93899 23.0041 8.90829C23.0623 8.84365 23.1253 8.78429 23.189 8.72475C23.2153 8.70004 23.2416 8.67532 23.2679 8.6506C23.2748 8.64418 23.2816 8.63775 23.2887 8.63113C23.3391 8.58381 23.3894 8.53633 23.4395 8.48875C23.4468 8.48181 23.4541 8.47487 23.4617 8.46772C23.4918 8.43915 23.5219 8.41058 23.552 8.38201C23.6371 8.30116 23.7224 8.22049 23.8083 8.14029C23.8767 8.07633 23.9448 8.01204 24.0124 7.94732C24.0482 7.91316 24.0841 7.8792 24.1204 7.84564C24.1609 7.80825 24.2006 7.77011 24.2402 7.73188C24.2523 7.72098 24.2643 7.71007 24.2768 7.69883C24.3385 7.63821 24.3385 7.63821 24.3554 7.55755C24.3483 7.51487 24.338 7.47495 24.3255 7.43347C24.2272 6.98654 24.3179 6.50066 24.5703 6.11471C24.7227 5.89043 24.9125 5.70435 25.1464 5.55945C25.1608 5.55048 25.1751 5.54152 25.1899 5.53228C25.8503 5.14118 26.7496 5.21504 27.3355 5.69827Z" fill="#450000"/>
<path d="M6.94296 4.99042C6.99216 5.03093 7.03988 5.0726 7.08697 5.11537C7.10157 5.1281 7.10157 5.1281 7.11645 5.14108C7.44446 5.43832 7.61909 5.89546 7.63424 6.32326C7.63803 6.57293 7.60395 6.81346 7.50237 7.04421C7.48134 7.09299 7.47145 7.12027 7.49022 7.17017C7.50605 7.19313 7.50605 7.19313 7.52651 7.21432C7.53402 7.22253 7.54153 7.23075 7.54927 7.23921C7.55741 7.24793 7.56555 7.25664 7.57393 7.26562C7.59112 7.28436 7.60829 7.30311 7.62547 7.32186C7.63854 7.33605 7.63854 7.33605 7.65188 7.35053C7.68999 7.39212 7.72739 7.43427 7.76476 7.47648C7.77903 7.49256 7.7933 7.50863 7.80757 7.5247C7.81461 7.53263 7.82165 7.54056 7.8289 7.54873C7.8648 7.58917 7.90074 7.62958 7.93668 7.66999C7.97974 7.7184 8.02278 7.76682 8.06579 7.81528C8.14009 7.89898 8.21462 7.98247 8.28952 8.06568C8.38594 8.17277 8.48165 8.28043 8.57726 8.38819C8.65869 8.47993 8.7403 8.57149 8.82239 8.66268C8.90446 8.75384 8.98605 8.84539 9.06745 8.93711C9.10335 8.97755 9.1393 9.01795 9.17523 9.05836C9.21829 9.10678 9.26134 9.1552 9.30434 9.20366C9.37865 9.28735 9.45318 9.37085 9.52808 9.45405C9.61015 9.54522 9.69174 9.63676 9.77314 9.72848C9.80904 9.76892 9.84498 9.80933 9.88092 9.84974C9.92398 9.89815 9.96703 9.94657 10.01 9.99503C10.0843 10.0787 10.1589 10.1622 10.2338 10.2454C10.3158 10.3366 10.3974 10.4281 10.4788 10.5199C10.5147 10.5603 10.5507 10.6007 10.5866 10.6411C10.6297 10.6895 10.6727 10.7379 10.7157 10.7864C10.79 10.8701 10.8646 10.9536 10.9395 11.0368C11.0215 11.128 11.1031 11.2195 11.1845 11.3112C11.2204 11.3517 11.2564 11.3921 11.2923 11.4325C11.3354 11.4809 11.3784 11.5293 11.4214 11.5778C11.4957 11.6615 11.5702 11.745 11.6451 11.8282C11.7272 11.9193 11.8088 12.0109 11.8902 12.1026C11.9189 12.1349 11.9476 12.1673 11.9764 12.1996C11.9907 12.2157 12.005 12.2317 12.0192 12.2478C12.057 12.2904 12.095 12.3328 12.1332 12.375C12.1411 12.3838 12.1491 12.3927 12.1573 12.4018C12.1726 12.4187 12.1879 12.4357 12.2033 12.4525C12.2345 12.4873 12.2564 12.513 12.2716 12.5571C12.231 12.5388 12.1976 12.5185 12.163 12.491C12.1536 12.4835 12.1441 12.4761 12.1344 12.4683C12.1244 12.4604 12.1145 12.4525 12.1042 12.4443C12.0833 12.4277 12.0624 12.4112 12.0415 12.3947C12.0315 12.3867 12.0214 12.3788 12.0111 12.3706C11.9781 12.3445 11.9449 12.3188 11.9116 12.2933C11.86 12.2537 11.8088 12.2137 11.7578 12.1735C11.6737 12.1075 11.5893 12.0418 11.5038 11.9774C11.4324 11.9236 11.3618 11.8689 11.2918 11.8134C11.1684 11.7156 11.0447 11.6183 10.9188 11.5236C10.8323 11.4586 10.7476 11.3915 10.6632 11.3241C10.5999 11.2737 10.5361 11.2242 10.4714 11.1756C10.3839 11.11 10.2982 11.0422 10.2127 10.9741C10.1489 10.9232 10.0847 10.8729 10.0199 10.8233C9.96855 10.7837 9.91755 10.7436 9.86652 10.7036C9.7932 10.6461 9.71968 10.5888 9.64577 10.5321C9.59552 10.4932 9.54562 10.4539 9.49567 10.4146C9.42217 10.3569 9.34817 10.2999 9.27335 10.2437C9.2001 10.1887 9.12891 10.1317 9.05836 10.0735C8.99551 10.0219 8.93094 9.97268 8.86576 9.92382C8.78683 9.86445 8.70975 9.80301 8.63266 9.74143C8.56823 9.69009 8.50313 9.63975 8.43714 9.59029C8.36421 9.5356 8.29336 9.479 8.22318 9.42107C8.16721 9.37507 8.10997 9.33095 8.05189 9.28745C7.97773 9.23189 7.90564 9.1745 7.83432 9.1156C7.77867 9.06987 7.72172 9.02607 7.66395 8.98287C7.5846 8.9235 7.50801 8.86161 7.43208 8.79826C7.3748 8.75053 7.31647 8.70444 7.2571 8.65915C7.11942 8.55316 6.98411 8.44425 6.84993 8.33418C6.78839 8.28376 6.726 8.23445 6.66285 8.18591C6.62612 8.15592 6.62612 8.15592 6.59253 8.12202C6.56172 8.09128 6.53491 8.06623 6.4965 8.04485C6.44372 8.04557 6.40071 8.06722 6.35248 8.0865C6.31591 8.09671 6.27959 8.10631 6.24267 8.11514C6.23284 8.1175 6.22301 8.11986 6.21288 8.12229C5.85374 8.20555 5.47387 8.18542 5.12833 8.05873C5.11423 8.05358 5.11423 8.05358 5.09984 8.04833C4.86784 7.96145 4.67081 7.83929 4.49465 7.66999C4.48245 7.65832 4.47026 7.64665 4.45769 7.63463C4.0916 7.27888 3.92614 6.83167 3.92775 6.33457C3.93523 5.8466 4.15167 5.41482 4.50905 5.07372C5.165 4.47479 6.24694 4.43175 6.94296 4.99042Z" fill="#450000"/>
<path d="M23.0251 2.64259C23.3919 2.97439 23.6028 3.42328 23.62 3.90861C23.6283 4.41788 23.4321 4.85924 23.0728 5.22757C23.0652 5.23577 23.0576 5.24396 23.0498 5.25241C22.7733 5.53934 22.3354 5.71163 21.935 5.74127C21.8768 5.74313 21.8187 5.74321 21.7604 5.74301C21.7452 5.74306 21.7299 5.74311 21.7142 5.74317C21.6423 5.74308 21.5736 5.74224 21.503 5.72739C21.4998 5.73646 21.4966 5.74553 21.4932 5.75488C21.4677 5.81112 21.4339 5.86068 21.3995 5.91221C21.3837 5.93596 21.368 5.95972 21.3523 5.98348C21.344 5.99603 21.3357 6.00858 21.3271 6.02151C21.283 6.08838 21.2395 6.15563 21.196 6.22286C21.1776 6.25126 21.1592 6.27966 21.1409 6.30806C21.1317 6.32224 21.1225 6.33643 21.113 6.35104C21.0678 6.42085 21.0226 6.49063 20.9773 6.56041C20.9593 6.58818 20.9413 6.61595 20.9233 6.64371C20.1672 7.80995 19.4111 8.97619 18.655 10.1424C18.6417 10.163 18.6417 10.163 18.628 10.1841C18.61 10.2118 18.5921 10.2395 18.5741 10.2672C18.5285 10.3375 18.483 10.4078 18.4375 10.4781C18.3486 10.6153 18.2595 10.7525 18.1697 10.8892C18.1125 10.9765 18.0556 11.064 17.9988 11.1516C17.9854 11.1724 17.9854 11.1724 17.9716 11.1936C17.9242 11.2669 17.8768 11.3401 17.8294 11.4134C17.8198 11.4283 17.8102 11.4432 17.8003 11.4585C17.782 11.4867 17.7638 11.515 17.7455 11.5432C17.6937 11.6234 17.6406 11.7025 17.5857 11.7807C17.5809 11.7715 17.5762 11.7624 17.5713 11.7529C17.5854 11.7125 17.6005 11.6735 17.617 11.634C17.622 11.6216 17.627 11.6093 17.6322 11.5966C17.649 11.5556 17.666 11.5145 17.6829 11.4735C17.6947 11.4447 17.7066 11.4158 17.7184 11.3869C17.7495 11.3111 17.7807 11.2353 17.8119 11.1595C17.8414 11.0879 17.8707 11.0162 17.9001 10.9446C17.9458 10.8331 17.9916 10.7217 18.0374 10.6103C18.0944 10.4716 18.1513 10.3329 18.2082 10.1941C18.714 8.95993 19.2218 7.72642 20.0151 5.83402C20.031 5.7967 20.0468 5.75936 20.0626 5.72203C20.109 5.61254 20.156 5.50336 20.2045 5.39472C20.217 5.36656 20.2295 5.33839 20.2419 5.31022C20.2532 5.28493 20.2648 5.25976 20.2763 5.23459C20.2829 5.21984 20.2894 5.20508 20.2962 5.18988C20.3019 5.17726 20.3076 5.16465 20.3136 5.15165C20.3243 5.10723 20.3148 5.08692 20.2932 5.04708C20.2763 5.02344 20.2763 5.02344 20.2563 5.00109C20.0847 4.78483 19.979 4.52317 19.9332 4.25571C19.9306 4.2418 19.9279 4.2279 19.9253 4.21357C19.8964 3.96777 19.9076 3.71664 19.9764 3.47822C19.9803 3.46424 19.9803 3.46424 19.9843 3.44997C20.1127 3.00644 20.4308 2.63447 20.8402 2.40423C21.5436 2.02215 22.4277 2.12123 23.0251 2.64259Z" fill="#450000"/>
<path d="M10.8435 1.68749C10.858 1.69128 10.858 1.69128 10.8728 1.69515C11.197 1.78235 11.4583 1.95907 11.6932 2.18731C11.7041 2.19767 11.715 2.20803 11.7262 2.21871C12.0464 2.5393 12.2053 3.00447 12.1994 3.44509C12.1782 3.91588 11.997 4.35 11.65 4.68639C11.6265 4.70544 11.6027 4.72419 11.578 4.74192C11.6086 4.85285 11.6422 4.96267 11.6773 5.07232C11.6828 5.08942 11.6882 5.10653 11.6939 5.12416C11.7088 5.1709 11.7238 5.21763 11.7387 5.26437C11.7515 5.30432 11.7643 5.34428 11.7771 5.38424C11.9017 5.7743 12.0271 6.16415 12.1525 6.55398C12.2344 6.80859 12.3162 7.06323 12.3979 7.31788C12.4137 7.36707 12.4295 7.41627 12.4453 7.46546C12.4771 7.56467 12.509 7.66388 12.5408 7.76309C12.592 7.92251 12.6432 8.08192 12.6944 8.24134C12.6982 8.25335 12.7021 8.26535 12.7061 8.27772C12.7255 8.33831 12.745 8.3989 12.7644 8.45949C12.7995 8.56876 12.8346 8.67803 12.8697 8.7873C12.8892 8.84804 12.9087 8.90879 12.9282 8.96953C12.936 8.99383 12.9438 9.01813 12.9516 9.04242C12.9555 9.05445 12.9593 9.06648 12.9633 9.07887C12.975 9.11531 12.9867 9.15176 12.9984 9.1882C13.0042 9.20624 13.0042 9.20624 13.0101 9.22465C13.0179 9.24894 13.0257 9.27324 13.0335 9.29753C13.053 9.35832 13.0725 9.41911 13.0921 9.47991C13.127 9.58863 13.1619 9.69736 13.1968 9.8061C13.216 9.86604 13.2352 9.92598 13.2545 9.98592C13.2583 9.99782 13.2621 10.0097 13.2661 10.022C13.3201 10.1903 13.3743 10.3586 13.4285 10.5269C13.4591 10.6219 13.4897 10.7169 13.5203 10.8119C13.5453 10.8894 13.5703 10.9669 13.5953 11.0444C13.6107 11.0922 13.6261 11.14 13.6415 11.1878C13.6486 11.2099 13.6557 11.232 13.6629 11.2541C13.697 11.3595 13.7304 11.4642 13.7527 11.5727C13.7169 11.5396 13.6952 11.5092 13.6725 11.4664C13.6656 11.4535 13.6587 11.4406 13.6516 11.4273C13.6442 11.4135 13.6369 11.3996 13.6294 11.3853C13.6138 11.3561 13.5981 11.3269 13.5825 11.2977C13.5709 11.2758 13.5709 11.2758 13.559 11.2535C13.5279 11.1954 13.4963 11.1376 13.4647 11.0799C13.4267 11.0105 13.3888 10.941 13.3514 10.8713C13.2828 10.744 13.2136 10.6171 13.1415 10.4915C13.0421 10.3178 12.9493 10.1408 12.856 9.96405C12.7772 9.81481 12.6971 9.66626 12.6159 9.5182C12.5823 9.45692 12.5492 9.39544 12.5159 9.33398C12.5088 9.32081 12.5017 9.30763 12.4943 9.29405C12.4647 9.2393 12.4351 9.18455 12.4055 9.12979C12.3835 9.0891 12.3615 9.04841 12.3395 9.00771C12.3323 8.99436 12.3251 8.98101 12.3176 8.96726C12.2735 8.88577 12.2292 8.80439 12.1847 8.7231C12.1178 8.60077 12.0518 8.478 11.9858 8.35519C11.9317 8.25444 11.8774 8.15377 11.8229 8.05321C11.7516 7.92164 11.6807 7.7899 11.6098 7.65811C11.5565 7.5589 11.503 7.45979 11.4493 7.36075C11.2965 7.07866 11.1453 6.79575 10.9942 6.51277C10.9441 6.41882 10.8938 6.32491 10.8434 6.23112C10.7246 6.01025 10.6077 5.78849 10.492 5.56611C10.4762 5.53562 10.4603 5.50515 10.4444 5.47468C10.4221 5.43193 10.3999 5.38915 10.3777 5.34636C10.3709 5.33338 10.3641 5.3204 10.3571 5.30703C10.351 5.29515 10.3448 5.28327 10.3385 5.27103C10.3331 5.26063 10.3277 5.25024 10.3221 5.23953C10.3107 5.21397 10.3107 5.21397 10.3107 5.18621C10.2995 5.18685 10.2882 5.18749 10.2767 5.18816C9.83215 5.20198 9.3987 5.00517 9.07779 4.71774C9.06641 4.70739 9.05503 4.69705 9.04331 4.68639C9.03267 4.67719 9.02203 4.66799 9.01107 4.65851C8.70969 4.38706 8.51425 3.95385 8.49374 3.55921C8.47525 3.02949 8.62057 2.56987 8.99875 2.17657C9.0087 2.16637 9.01865 2.15617 9.02891 2.14566C9.03648 2.13746 9.04406 2.12927 9.05186 2.12082C9.2567 1.90824 9.54946 1.76649 9.83541 1.68749C9.84591 1.68457 9.85641 1.68166 9.86723 1.67865C10.1814 1.59568 10.5308 1.60297 10.8435 1.68749Z" fill="#450000"/>
<path d="M17.1816 0.44653C17.5343 0.739472 17.7601 1.16954 17.7999 1.61711C17.8244 2.11944 17.6986 2.58177 17.3481 2.9647C17.326 2.98766 17.3038 3.01051 17.2815 3.03325C17.2705 3.04469 17.2596 3.05612 17.2483 3.0679C17.0633 3.25501 16.8105 3.41862 16.547 3.47753C16.5472 3.49039 16.5472 3.49039 16.5473 3.50351C16.5479 3.58339 16.5446 3.66177 16.5369 3.74128C16.5359 3.75309 16.5348 3.76491 16.5336 3.77709C16.53 3.81646 16.5263 3.85582 16.5226 3.89518C16.5199 3.92378 16.5173 3.95238 16.5146 3.98098C16.5073 4.05939 16.5 4.1378 16.4926 4.21621C16.4847 4.30083 16.4768 4.38546 16.4689 4.47009C16.4535 4.63578 16.438 4.80147 16.4225 4.96716C16.4098 5.10177 16.3972 5.23638 16.3847 5.37099C16.381 5.40976 16.3774 5.44853 16.3738 5.4873C16.3729 5.49694 16.372 5.50657 16.3711 5.5165C16.3457 5.78746 16.3204 6.05841 16.295 6.32936C16.294 6.33957 16.2931 6.34978 16.2921 6.3603C16.2872 6.41204 16.2824 6.46378 16.2775 6.51552C16.2761 6.53093 16.2761 6.53093 16.2746 6.54666C16.2726 6.56744 16.2707 6.58822 16.2687 6.609C16.2384 6.93262 16.2081 7.25625 16.178 7.57989C16.1441 7.94353 16.1101 8.30716 16.076 8.67078C16.0723 8.70952 16.0687 8.74826 16.0651 8.78701C16.0637 8.80131 16.0637 8.80132 16.0624 8.81591C16.0488 8.96007 16.0354 9.10423 16.022 9.24839C16.0067 9.41222 15.9914 9.57604 15.9759 9.73986C15.9681 9.82348 15.9602 9.90711 15.9525 9.99075C15.9454 10.0672 15.9382 10.1437 15.9309 10.2202C15.9283 10.2479 15.9257 10.2756 15.9232 10.3034C15.9198 10.341 15.9162 10.3785 15.9126 10.4161C15.9116 10.427 15.9106 10.4379 15.9096 10.4491C15.9046 10.5001 15.8989 10.5422 15.8701 10.586C15.8299 10.2162 15.7927 9.84618 15.7575 9.47589C15.7521 9.4187 15.7467 9.36152 15.7412 9.30434C15.725 9.13498 15.7089 8.96561 15.6929 8.79625C15.6837 8.69979 15.6745 8.60333 15.6654 8.50687C15.3997 5.71203 15.3997 5.71203 15.2564 4.03917C15.2555 4.02795 15.2546 4.01673 15.2536 4.00516C15.2199 3.60433 15.2199 3.60433 15.2211 3.50009C15.2212 3.48509 15.2214 3.4701 15.2215 3.45464C15.2217 3.44387 15.2218 3.4331 15.222 3.422C15.2054 3.41799 15.1887 3.41398 15.1716 3.40985C14.9828 3.34859 14.8198 3.21653 14.6747 3.08878C14.6575 3.07389 14.6575 3.07389 14.6399 3.05869C14.2957 2.74565 14.119 2.29221 14.096 1.84299C14.0866 1.33682 14.2798 0.889226 14.638 0.522579C14.7443 0.4168 14.8618 0.333546 14.9916 0.256496C15.0003 0.25129 15.009 0.246085 15.018 0.240721C15.7061 -0.16153 16.58 -0.0371379 17.1816 0.44653Z" fill="#450000"/>
</svg>
